<svg width="414" height="315" viewBox="0 0 414 315" fill="none" xmlns="http://www.w3.org/2000/svg">
<path d="M0 0H414V315H0V0Z" fill="url(#paint0_linear_51_479)" fill-opacity="0.8"/>
<path d="M145.566 239.209H144.773L143.592 237.102L143.275 237.127C142.399 237.127 141.735 236.712 141.282 235.883C140.829 235.049 140.603 233.866 140.603 232.334C140.603 230.735 140.827 229.544 141.275 228.761C141.724 227.978 142.397 227.586 143.294 227.586C144.157 227.586 144.815 227.999 145.268 228.824C145.725 229.645 145.954 230.819 145.954 232.347C145.954 233.579 145.803 234.586 145.503 235.369C145.207 236.152 144.777 236.674 144.214 236.937L145.566 239.209ZM141.25 232.347C141.25 233.727 141.421 234.77 141.764 235.477C142.111 236.179 142.615 236.53 143.275 236.53C143.939 236.53 144.443 236.181 144.786 235.483C145.133 234.785 145.306 233.739 145.306 232.347C145.306 230.972 145.137 229.935 144.798 229.237C144.46 228.534 143.958 228.183 143.294 228.183C142.613 228.183 142.101 228.539 141.758 229.25C141.419 229.956 141.25 230.989 141.25 232.347ZM148.163 230.113V234.607C148.163 235.288 148.243 235.785 148.404 236.099C148.569 236.412 148.821 236.568 149.159 236.568C149.68 236.568 150.061 236.359 150.302 235.94C150.547 235.517 150.67 234.835 150.67 233.896V230.113H151.267V237H150.759L150.683 236.035H150.632C150.484 236.386 150.278 236.657 150.016 236.848C149.754 237.034 149.468 237.127 149.159 237.127C148.605 237.127 148.199 236.93 147.94 236.537C147.687 236.143 147.56 235.5 147.56 234.607V230.113H148.163ZM153.71 237H153.107V230.113H153.71V237ZM153.019 228.202C153.019 228.012 153.057 227.864 153.133 227.758C153.213 227.652 153.315 227.599 153.438 227.599C153.552 227.599 153.643 227.652 153.71 227.758C153.778 227.864 153.812 228.012 153.812 228.202C153.812 228.384 153.778 228.53 153.71 228.64C153.643 228.746 153.552 228.799 153.438 228.799C153.315 228.799 153.213 228.746 153.133 228.64C153.057 228.53 153.019 228.384 153.019 228.202ZM157.513 237.127C156.785 237.127 156.224 236.818 155.831 236.2C155.441 235.578 155.247 234.713 155.247 233.604C155.247 232.428 155.42 231.53 155.767 230.913C156.118 230.291 156.622 229.979 157.278 229.979C157.849 229.979 158.3 230.252 158.63 230.798C158.96 231.34 159.125 232.072 159.125 232.995V233.553H155.862C155.871 234.556 156.013 235.307 156.288 235.807C156.563 236.306 156.979 236.556 157.538 236.556C157.97 236.556 158.425 236.414 158.903 236.13V236.714C158.463 236.989 157.999 237.127 157.513 237.127ZM157.24 230.525C156.41 230.525 155.955 231.353 155.875 233.007H158.522C158.522 232.25 158.406 231.647 158.173 231.198C157.944 230.75 157.633 230.525 157.24 230.525ZM162.572 229.979C162.788 229.979 162.989 230.009 163.175 230.068L163.029 230.671C162.876 230.608 162.72 230.576 162.559 230.576C162.326 230.576 162.108 230.697 161.905 230.938C161.706 231.175 161.55 231.507 161.436 231.935C161.321 232.362 161.264 232.834 161.264 233.35V237H160.661V230.113H161.156L161.22 231.319H161.264C161.586 230.426 162.022 229.979 162.572 229.979ZM166.171 237.127C165.443 237.127 164.882 236.818 164.489 236.2C164.099 235.578 163.905 234.713 163.905 233.604C163.905 232.428 164.078 231.53 164.425 230.913C164.777 230.291 165.28 229.979 165.936 229.979C166.507 229.979 166.958 230.252 167.288 230.798C167.618 231.34 167.783 232.072 167.783 232.995V233.553H164.521C164.529 234.556 164.671 235.307 164.946 235.807C165.221 236.306 165.638 236.556 166.196 236.556C166.628 236.556 167.083 236.414 167.561 236.13V236.714C167.121 236.989 166.658 237.127 166.171 237.127ZM165.898 230.525C165.069 230.525 164.614 231.353 164.533 233.007H167.18C167.18 232.25 167.064 231.647 166.831 231.198C166.603 230.75 166.292 230.525 165.898 230.525ZM172.023 235.273C172.023 235.853 171.871 236.308 171.566 236.638C171.262 236.964 170.822 237.127 170.246 237.127C169.933 237.127 169.658 237.087 169.421 237.006C169.184 236.926 169 236.837 168.869 236.74V236.035C169.025 236.192 169.233 236.319 169.491 236.416C169.749 236.509 170.013 236.556 170.284 236.556C170.64 236.556 170.919 236.439 171.122 236.207C171.325 235.974 171.427 235.663 171.427 235.273C171.427 234.969 171.353 234.713 171.205 234.505C171.061 234.294 170.784 234.055 170.373 233.788C169.903 233.492 169.582 233.255 169.408 233.077C169.239 232.899 169.106 232.701 169.008 232.48C168.915 232.26 168.869 231.998 168.869 231.693C168.869 231.198 169.036 230.79 169.37 230.468C169.704 230.142 170.13 229.979 170.646 229.979C171.2 229.979 171.664 230.111 172.036 230.373L171.725 230.9C171.378 230.667 171.01 230.551 170.621 230.551C170.265 230.551 169.982 230.657 169.77 230.868C169.558 231.076 169.453 231.351 169.453 231.693C169.453 231.998 169.525 232.254 169.668 232.461C169.812 232.665 170.117 232.912 170.583 233.204C171.04 233.505 171.353 233.746 171.522 233.928C171.691 234.105 171.816 234.304 171.896 234.524C171.981 234.74 172.023 234.99 172.023 235.273ZM177.552 237.127C176.215 237.127 175.546 235.94 175.546 233.566C175.546 232.398 175.714 231.509 176.048 230.9C176.382 230.286 176.875 229.979 177.527 229.979C177.836 229.979 178.128 230.068 178.403 230.246C178.682 230.424 178.904 230.669 179.069 230.982H179.12L179.095 230.214V227.123H179.698V237H179.203L179.152 236.035H179.095C178.93 236.386 178.716 236.657 178.454 236.848C178.191 237.034 177.891 237.127 177.552 237.127ZM177.59 236.6C178.073 236.6 178.443 236.378 178.701 235.934C178.964 235.485 179.095 234.827 179.095 233.959V233.566C179.095 232.525 178.968 231.763 178.714 231.281C178.464 230.794 178.081 230.551 177.565 230.551C177.07 230.551 176.714 230.811 176.499 231.332C176.283 231.848 176.175 232.597 176.175 233.579C176.175 234.569 176.287 235.32 176.511 235.832C176.736 236.344 177.095 236.6 177.59 236.6ZM183.5 237.127C182.772 237.127 182.211 236.818 181.818 236.2C181.429 235.578 181.234 234.713 181.234 233.604C181.234 232.428 181.407 231.53 181.754 230.913C182.106 230.291 182.609 229.979 183.265 229.979C183.836 229.979 184.287 230.252 184.617 230.798C184.947 231.34 185.112 232.072 185.112 232.995V233.553H181.85C181.858 234.556 182 235.307 182.275 235.807C182.55 236.306 182.967 236.556 183.525 236.556C183.957 236.556 184.412 236.414 184.89 236.13V236.714C184.45 236.989 183.987 237.127 183.5 237.127ZM183.227 230.525C182.398 230.525 181.943 231.353 181.862 233.007H184.509C184.509 232.25 184.393 231.647 184.16 231.198C183.932 230.75 183.621 230.525 183.227 230.525ZM189.353 235.273C189.353 235.853 189.2 236.308 188.896 236.638C188.591 236.964 188.151 237.127 187.575 237.127C187.262 237.127 186.987 237.087 186.75 237.006C186.513 236.926 186.329 236.837 186.198 236.74V236.035C186.354 236.192 186.562 236.319 186.82 236.416C187.078 236.509 187.342 236.556 187.613 236.556C187.969 236.556 188.248 236.439 188.451 236.207C188.654 235.974 188.756 235.663 188.756 235.273C188.756 234.969 188.682 234.713 188.534 234.505C188.39 234.294 188.113 234.055 187.702 233.788C187.232 233.492 186.911 233.255 186.737 233.077C186.568 232.899 186.435 232.701 186.337 232.48C186.244 232.26 186.198 231.998 186.198 231.693C186.198 231.198 186.365 230.79 186.699 230.468C187.034 230.142 187.459 229.979 187.975 229.979C188.529 229.979 188.993 230.111 189.365 230.373L189.054 230.9C188.707 230.667 188.339 230.551 187.95 230.551C187.594 230.551 187.311 230.657 187.099 230.868C186.888 231.076 186.782 231.351 186.782 231.693C186.782 231.998 186.854 232.254 186.998 232.461C187.141 232.665 187.446 232.912 187.912 233.204C188.369 233.505 188.682 233.746 188.851 233.928C189.02 234.105 189.145 234.304 189.226 234.524C189.31 234.74 189.353 234.99 189.353 235.273ZM192.52 237.127C191.83 237.127 191.31 236.829 190.958 236.232C190.611 235.631 190.438 234.751 190.438 233.591C190.438 232.415 190.614 231.52 190.965 230.906C191.32 230.288 191.843 229.979 192.533 229.979C192.96 229.979 193.316 230.058 193.599 230.214L193.364 230.748C193.081 230.616 192.82 230.551 192.583 230.551C191.572 230.551 191.066 231.56 191.066 233.579C191.066 235.58 191.572 236.581 192.583 236.581C192.884 236.581 193.21 236.513 193.561 236.378V236.886C193.421 236.962 193.25 237.021 193.047 237.063C192.844 237.106 192.668 237.127 192.52 237.127ZM195.364 230.113V234.607C195.364 235.288 195.444 235.785 195.605 236.099C195.77 236.412 196.022 236.568 196.36 236.568C196.881 236.568 197.262 236.359 197.503 235.94C197.748 235.517 197.871 234.835 197.871 233.896V230.113H198.468V237H197.96L197.884 236.035H197.833C197.685 236.386 197.48 236.657 197.217 236.848C196.955 237.034 196.669 237.127 196.36 237.127C195.806 237.127 195.4 236.93 195.142 236.537C194.888 236.143 194.761 235.5 194.761 234.607V230.113H195.364ZM202.441 229.992C203.787 229.992 204.46 231.175 204.46 233.541C204.46 234.708 204.293 235.599 203.958 236.213C203.624 236.822 203.142 237.127 202.511 237.127C202.181 237.127 201.881 237.036 201.61 236.854C201.339 236.672 201.115 236.403 200.937 236.048H200.886L200.804 237H200.309V227.123H200.912V230.189L200.886 231.021H200.937C201.301 230.335 201.802 229.992 202.441 229.992ZM202.416 230.551C201.887 230.551 201.504 230.784 201.267 231.249C201.03 231.715 200.912 232.478 200.912 233.541V233.699C200.912 235.62 201.422 236.581 202.441 236.581C202.907 236.581 203.254 236.333 203.482 235.838C203.715 235.343 203.832 234.577 203.832 233.541C203.832 232.546 203.719 231.799 203.495 231.3C203.271 230.8 202.911 230.551 202.416 230.551ZM207.894 229.979C208.11 229.979 208.311 230.009 208.497 230.068L208.351 230.671C208.199 230.608 208.042 230.576 207.881 230.576C207.649 230.576 207.431 230.697 207.228 230.938C207.029 231.175 206.872 231.507 206.758 231.935C206.644 232.362 206.586 232.834 206.586 233.35V237H205.983V230.113H206.479L206.542 231.319H206.586C206.908 230.426 207.344 229.979 207.894 229.979ZM210.141 237H209.538V230.113H210.141V237ZM209.449 228.202C209.449 228.012 209.487 227.864 209.563 227.758C209.644 227.652 209.745 227.599 209.868 227.599C209.982 227.599 210.073 227.652 210.141 227.758C210.209 227.864 210.243 228.012 210.243 228.202C210.243 228.384 210.209 228.53 210.141 228.64C210.073 228.746 209.982 228.799 209.868 228.799C209.745 228.799 209.644 228.746 209.563 228.64C209.487 228.53 209.449 228.384 209.449 228.202ZM213.899 229.979C214.115 229.979 214.316 230.009 214.502 230.068L214.356 230.671C214.204 230.608 214.047 230.576 213.886 230.576C213.653 230.576 213.436 230.697 213.232 230.938C213.034 231.175 212.877 231.507 212.763 231.935C212.648 232.362 212.591 232.834 212.591 233.35V237H211.988V230.113H212.483L212.547 231.319H212.591C212.913 230.426 213.349 229.979 213.899 229.979ZM219.256 236.568C219.443 236.568 219.608 236.543 219.751 236.492V237C219.565 237.085 219.326 237.127 219.034 237.127C218.323 237.127 217.968 236.596 217.968 235.534V230.646H217.346V230.291L217.955 230.113L218.152 228.475H218.571V230.113H219.663V230.646H218.571V235.362C218.571 235.828 218.622 236.145 218.723 236.314C218.825 236.484 219.002 236.568 219.256 236.568ZM224.728 233.541C224.728 234.7 224.544 235.589 224.176 236.207C223.812 236.82 223.289 237.127 222.608 237.127C221.935 237.127 221.419 236.82 221.059 236.207C220.704 235.589 220.526 234.7 220.526 233.541C220.526 231.167 221.228 229.979 222.633 229.979C223.293 229.979 223.808 230.291 224.176 230.913C224.544 231.535 224.728 232.411 224.728 233.541ZM221.154 233.541C221.154 234.535 221.273 235.286 221.51 235.794C221.747 236.302 222.117 236.556 222.621 236.556C223.607 236.556 224.1 235.551 224.1 233.541C224.1 231.547 223.607 230.551 222.621 230.551C222.104 230.551 221.73 230.8 221.497 231.3C221.269 231.799 221.154 232.546 221.154 233.541ZM227.927 237.127C226.59 237.127 225.921 235.94 225.921 233.566C225.921 232.398 226.089 231.509 226.423 230.9C226.757 230.286 227.25 229.979 227.902 229.979C228.211 229.979 228.503 230.068 228.778 230.246C229.057 230.424 229.279 230.669 229.444 230.982H229.495L229.47 230.214V227.123H230.073V237H229.578L229.527 236.035H229.47C229.305 236.386 229.091 236.657 228.829 236.848C228.566 237.034 228.266 237.127 227.927 237.127ZM227.965 236.6C228.448 236.6 228.818 236.378 229.076 235.934C229.339 235.485 229.47 234.827 229.47 233.959V233.566C229.47 232.525 229.343 231.763 229.089 231.281C228.839 230.794 228.456 230.551 227.94 230.551C227.445 230.551 227.089 230.811 226.874 231.332C226.658 231.848 226.55 232.597 226.55 233.579C226.55 234.569 226.662 235.32 226.886 235.832C227.111 236.344 227.47 236.6 227.965 236.6ZM235.798 233.541C235.798 234.7 235.614 235.589 235.246 236.207C234.882 236.82 234.36 237.127 233.678 237.127C233.005 237.127 232.489 236.82 232.129 236.207C231.774 235.589 231.596 234.7 231.596 233.541C231.596 231.167 232.299 229.979 233.704 229.979C234.364 229.979 234.878 230.291 235.246 230.913C235.614 231.535 235.798 232.411 235.798 233.541ZM232.225 233.541C232.225 234.535 232.343 235.286 232.58 235.794C232.817 236.302 233.187 236.556 233.691 236.556C234.677 236.556 235.17 235.551 235.17 233.541C235.17 231.547 234.677 230.551 233.691 230.551C233.175 230.551 232.8 230.8 232.567 231.3C232.339 231.799 232.225 232.546 232.225 233.541ZM240.02 235.273C240.02 235.853 239.867 236.308 239.562 236.638C239.258 236.964 238.818 237.127 238.242 237.127C237.929 237.127 237.654 237.087 237.417 237.006C237.18 236.926 236.996 236.837 236.865 236.74V236.035C237.021 236.192 237.229 236.319 237.487 236.416C237.745 236.509 238.009 236.556 238.28 236.556C238.636 236.556 238.915 236.439 239.118 236.207C239.321 235.974 239.423 235.663 239.423 235.273C239.423 234.969 239.349 234.713 239.201 234.505C239.057 234.294 238.78 234.055 238.369 233.788C237.899 233.492 237.578 233.255 237.404 233.077C237.235 232.899 237.102 232.701 237.004 232.48C236.911 232.26 236.865 231.998 236.865 231.693C236.865 231.198 237.032 230.79 237.366 230.468C237.701 230.142 238.126 229.979 238.642 229.979C239.196 229.979 239.66 230.111 240.032 230.373L239.721 230.9C239.374 230.667 239.006 230.551 238.617 230.551C238.261 230.551 237.978 230.657 237.766 230.868C237.555 231.076 237.449 231.351 237.449 231.693C237.449 231.998 237.521 232.254 237.665 232.461C237.808 232.665 238.113 232.912 238.579 233.204C239.036 233.505 239.349 233.746 239.518 233.928C239.687 234.105 239.812 234.304 239.893 234.524C239.977 234.74 240.02 234.99 240.02 235.273ZM246.977 237V232.252C246.977 231.109 246.638 230.538 245.961 230.538C245.445 230.538 245.066 230.752 244.825 231.179C244.588 231.607 244.469 232.286 244.469 233.217V237H243.866V230.113H244.374L244.425 231.071H244.482C244.626 230.724 244.833 230.456 245.104 230.265C245.375 230.075 245.665 229.979 245.974 229.979C246.507 229.979 246.907 230.159 247.173 230.519C247.44 230.875 247.573 231.448 247.573 232.239V237H246.977ZM249.966 230.113V234.607C249.966 235.288 250.047 235.785 250.208 236.099C250.373 236.412 250.624 236.568 250.963 236.568C251.483 236.568 251.864 236.359 252.105 235.94C252.351 235.517 252.474 234.835 252.474 233.896V230.113H253.07V237H252.562L252.486 236.035H252.436C252.287 236.386 252.082 236.657 251.82 236.848C251.557 237.034 251.272 237.127 250.963 237.127C250.409 237.127 250.002 236.93 249.744 236.537C249.49 236.143 249.363 235.5 249.363 234.607V230.113H249.966ZM256.866 237.127C256.138 237.127 255.578 236.818 255.184 236.2C254.795 235.578 254.6 234.713 254.6 233.604C254.6 232.428 254.774 231.53 255.121 230.913C255.472 230.291 255.975 229.979 256.631 229.979C257.203 229.979 257.653 230.252 257.983 230.798C258.313 231.34 258.479 232.072 258.479 232.995V233.553H255.216C255.224 234.556 255.366 235.307 255.641 235.807C255.916 236.306 256.333 236.556 256.892 236.556C257.323 236.556 257.778 236.414 258.256 236.13V236.714C257.816 236.989 257.353 237.127 256.866 237.127ZM256.593 230.525C255.764 230.525 255.309 231.353 255.229 233.007H257.875C257.875 232.25 257.759 231.647 257.526 231.198C257.298 230.75 256.987 230.525 256.593 230.525ZM262.719 235.273C262.719 235.853 262.566 236.308 262.262 236.638C261.957 236.964 261.517 237.127 260.941 237.127C260.628 237.127 260.353 237.087 260.116 237.006C259.879 236.926 259.695 236.837 259.564 236.74V236.035C259.721 236.192 259.928 236.319 260.186 236.416C260.444 236.509 260.709 236.556 260.979 236.556C261.335 236.556 261.614 236.439 261.817 236.207C262.021 235.974 262.122 235.663 262.122 235.273C262.122 234.969 262.048 234.713 261.9 234.505C261.756 234.294 261.479 234.055 261.068 233.788C260.599 233.492 260.277 233.255 260.104 233.077C259.934 232.899 259.801 232.701 259.704 232.48C259.611 232.26 259.564 231.998 259.564 231.693C259.564 231.198 259.731 230.79 260.065 230.468C260.4 230.142 260.825 229.979 261.341 229.979C261.896 229.979 262.359 230.111 262.731 230.373L262.42 230.9C262.073 230.667 261.705 230.551 261.316 230.551C260.96 230.551 260.677 230.657 260.465 230.868C260.254 231.076 260.148 231.351 260.148 231.693C260.148 231.998 260.22 232.254 260.364 232.461C260.508 232.665 260.812 232.912 261.278 233.204C261.735 233.505 262.048 233.746 262.217 233.928C262.387 234.105 262.511 234.304 262.592 234.524C262.676 234.74 262.719 234.99 262.719 235.273ZM265.378 236.568C265.565 236.568 265.73 236.543 265.874 236.492V237C265.687 237.085 265.448 237.127 265.156 237.127C264.445 237.127 264.09 236.596 264.09 235.534V230.646H263.468V230.291L264.077 230.113L264.274 228.475H264.693V230.113H265.785V230.646H264.693V235.362C264.693 235.828 264.744 236.145 264.845 236.314C264.947 236.484 265.125 236.568 265.378 236.568ZM268.882 229.979C269.098 229.979 269.299 230.009 269.485 230.068L269.339 230.671C269.187 230.608 269.03 230.576 268.87 230.576C268.637 230.576 268.419 230.697 268.216 230.938C268.017 231.175 267.86 231.507 267.746 231.935C267.632 232.362 267.575 232.834 267.575 233.35V237H266.972V230.113H267.467L267.53 231.319H267.575C267.896 230.426 268.332 229.979 268.882 229.979ZM274.405 233.541C274.405 234.7 274.221 235.589 273.853 236.207C273.489 236.82 272.966 237.127 272.285 237.127C271.612 237.127 271.096 236.82 270.736 236.207C270.38 235.589 270.203 234.7 270.203 233.541C270.203 231.167 270.905 229.979 272.31 229.979C272.97 229.979 273.484 230.291 273.853 230.913C274.221 231.535 274.405 232.411 274.405 233.541ZM270.831 233.541C270.831 234.535 270.95 235.286 271.187 235.794C271.424 236.302 271.794 236.556 272.297 236.556C273.283 236.556 273.776 235.551 273.776 233.541C273.776 231.547 273.283 230.551 272.297 230.551C271.781 230.551 271.407 230.8 271.174 231.3C270.945 231.799 270.831 232.546 270.831 233.541ZM278.626 235.273C278.626 235.853 278.474 236.308 278.169 236.638C277.864 236.964 277.424 237.127 276.849 237.127C276.535 237.127 276.26 237.087 276.023 237.006C275.786 236.926 275.602 236.837 275.471 236.74V236.035C275.628 236.192 275.835 236.319 276.093 236.416C276.351 236.509 276.616 236.556 276.887 236.556C277.242 236.556 277.521 236.439 277.725 236.207C277.928 235.974 278.029 235.663 278.029 235.273C278.029 234.969 277.955 234.713 277.807 234.505C277.663 234.294 277.386 234.055 276.976 233.788C276.506 233.492 276.184 233.255 276.011 233.077C275.841 232.899 275.708 232.701 275.611 232.48C275.518 232.26 275.471 231.998 275.471 231.693C275.471 231.198 275.638 230.79 275.973 230.468C276.307 230.142 276.732 229.979 277.249 229.979C277.803 229.979 278.266 230.111 278.639 230.373L278.328 230.9C277.981 230.667 277.612 230.551 277.223 230.551C276.868 230.551 276.584 230.657 276.373 230.868C276.161 231.076 276.055 231.351 276.055 231.693C276.055 231.998 276.127 232.254 276.271 232.461C276.415 232.665 276.72 232.912 277.185 233.204C277.642 233.505 277.955 233.746 278.125 233.928C278.294 234.105 278.419 234.304 278.499 234.524C278.584 234.74 278.626 234.99 278.626 235.273ZM159.176 255.127C158.829 255.127 158.511 255.032 158.224 254.841C157.94 254.647 157.724 254.382 157.576 254.048H157.519L157.563 254.803V258.123H156.96V248.113H157.456L157.519 249.059H157.576C157.745 248.712 157.961 248.445 158.224 248.259C158.49 248.073 158.78 247.979 159.093 247.979C160.439 247.979 161.112 249.167 161.112 251.541C161.112 252.687 160.947 253.572 160.617 254.194C160.287 254.816 159.806 255.127 159.176 255.127ZM159.055 248.551C158.552 248.551 158.177 248.773 157.932 249.217C157.686 249.662 157.563 250.358 157.563 251.306V251.502C157.563 252.56 157.688 253.339 157.938 253.838C158.188 254.333 158.569 254.581 159.081 254.581C159.555 254.581 159.906 254.336 160.134 253.845C160.367 253.35 160.483 252.582 160.483 251.541C160.483 250.546 160.375 249.799 160.16 249.3C159.944 248.8 159.576 248.551 159.055 248.551ZM164.546 247.979C164.762 247.979 164.963 248.009 165.149 248.068L165.003 248.671C164.851 248.608 164.694 248.576 164.533 248.576C164.3 248.576 164.083 248.697 163.879 248.938C163.681 249.175 163.524 249.507 163.41 249.935C163.295 250.362 163.238 250.834 163.238 251.35V255H162.635V248.113H163.13L163.194 249.319H163.238C163.56 248.426 163.996 247.979 164.546 247.979ZM170.068 251.541C170.068 252.7 169.884 253.589 169.516 254.207C169.152 254.82 168.63 255.127 167.948 255.127C167.275 255.127 166.759 254.82 166.399 254.207C166.044 253.589 165.866 252.7 165.866 251.541C165.866 249.167 166.569 247.979 167.974 247.979C168.634 247.979 169.148 248.291 169.516 248.913C169.884 249.535 170.068 250.411 170.068 251.541ZM166.495 251.541C166.495 252.535 166.613 253.286 166.85 253.794C167.087 254.302 167.457 254.556 167.961 254.556C168.947 254.556 169.44 253.551 169.44 251.541C169.44 249.547 168.947 248.551 167.961 248.551C167.445 248.551 167.07 248.8 166.837 249.3C166.609 249.799 166.495 250.546 166.495 251.541ZM173.268 255.127C171.93 255.127 171.262 253.94 171.262 251.566C171.262 250.398 171.429 249.509 171.763 248.9C172.097 248.286 172.59 247.979 173.242 247.979C173.551 247.979 173.843 248.068 174.118 248.246C174.397 248.424 174.62 248.669 174.785 248.982H174.835L174.81 248.214V245.123H175.413V255H174.918L174.867 254.035H174.81C174.645 254.386 174.431 254.657 174.169 254.848C173.907 255.034 173.606 255.127 173.268 255.127ZM173.306 254.6C173.788 254.6 174.158 254.378 174.417 253.934C174.679 253.485 174.81 252.827 174.81 251.959V251.566C174.81 250.525 174.683 249.763 174.429 249.281C174.18 248.794 173.797 248.551 173.28 248.551C172.785 248.551 172.43 248.811 172.214 249.332C171.998 249.848 171.89 250.597 171.89 251.579C171.89 252.569 172.002 253.32 172.227 253.832C172.451 254.344 172.811 254.6 173.306 254.6ZM177.838 248.113V252.607C177.838 253.288 177.918 253.785 178.079 254.099C178.244 254.412 178.496 254.568 178.834 254.568C179.355 254.568 179.736 254.359 179.977 253.94C180.222 253.517 180.345 252.835 180.345 251.896V248.113H180.942V255H180.434L180.358 254.035H180.307C180.159 254.386 179.954 254.657 179.691 254.848C179.429 255.034 179.143 255.127 178.834 255.127C178.28 255.127 177.874 254.93 177.616 254.537C177.362 254.143 177.235 253.5 177.235 252.607V248.113H177.838ZM184.554 255.127C183.864 255.127 183.343 254.829 182.992 254.232C182.645 253.631 182.472 252.751 182.472 251.591C182.472 250.415 182.647 249.52 182.999 248.906C183.354 248.288 183.877 247.979 184.566 247.979C184.994 247.979 185.349 248.058 185.633 248.214L185.398 248.748C185.114 248.616 184.854 248.551 184.617 248.551C183.606 248.551 183.1 249.56 183.1 251.579C183.1 253.58 183.606 254.581 184.617 254.581C184.918 254.581 185.243 254.513 185.595 254.378V254.886C185.455 254.962 185.284 255.021 185.081 255.063C184.877 255.106 184.702 255.127 184.554 255.127ZM188.083 254.568C188.269 254.568 188.434 254.543 188.578 254.492V255C188.392 255.085 188.153 255.127 187.861 255.127C187.15 255.127 186.794 254.596 186.794 253.534V248.646H186.172V248.291L186.782 248.113L186.979 246.475H187.397V248.113H188.489V248.646H187.397V253.362C187.397 253.828 187.448 254.145 187.55 254.314C187.651 254.484 187.829 254.568 188.083 254.568ZM193.555 251.541C193.555 252.7 193.371 253.589 193.002 254.207C192.639 254.82 192.116 255.127 191.435 255.127C190.762 255.127 190.245 254.82 189.886 254.207C189.53 253.589 189.353 252.7 189.353 251.541C189.353 249.167 190.055 247.979 191.46 247.979C192.12 247.979 192.634 248.291 193.002 248.913C193.371 249.535 193.555 250.411 193.555 251.541ZM189.981 251.541C189.981 252.535 190.099 253.286 190.336 253.794C190.573 254.302 190.944 254.556 191.447 254.556C192.433 254.556 192.926 253.551 192.926 251.541C192.926 249.547 192.433 248.551 191.447 248.551C190.931 248.551 190.556 248.8 190.324 249.3C190.095 249.799 189.981 250.546 189.981 251.541ZM197.776 253.273C197.776 253.853 197.624 254.308 197.319 254.638C197.014 254.964 196.574 255.127 195.999 255.127C195.685 255.127 195.41 255.087 195.173 255.006C194.936 254.926 194.752 254.837 194.621 254.74V254.035C194.778 254.192 194.985 254.319 195.243 254.416C195.501 254.509 195.766 254.556 196.037 254.556C196.392 254.556 196.671 254.439 196.875 254.207C197.078 253.974 197.179 253.663 197.179 253.273C197.179 252.969 197.105 252.713 196.957 252.505C196.813 252.294 196.536 252.055 196.125 251.788C195.656 251.492 195.334 251.255 195.161 251.077C194.991 250.899 194.858 250.701 194.761 250.48C194.668 250.26 194.621 249.998 194.621 249.693C194.621 249.198 194.788 248.79 195.123 248.468C195.457 248.142 195.882 247.979 196.398 247.979C196.953 247.979 197.416 248.111 197.789 248.373L197.478 248.9C197.131 248.667 196.762 248.551 196.373 248.551C196.018 248.551 195.734 248.657 195.522 248.868C195.311 249.076 195.205 249.351 195.205 249.693C195.205 249.998 195.277 250.254 195.421 250.461C195.565 250.665 195.869 250.912 196.335 251.204C196.792 251.505 197.105 251.746 197.274 251.928C197.444 252.105 197.569 252.304 197.649 252.524C197.734 252.74 197.776 252.99 197.776 253.273ZM207.475 255V250.309C207.475 249.154 207.137 248.576 206.459 248.576C205.994 248.576 205.658 248.779 205.45 249.186C205.247 249.588 205.146 250.182 205.146 250.969V255H204.549V250.309C204.549 249.725 204.466 249.291 204.301 249.008C204.136 248.72 203.88 248.576 203.533 248.576C203.076 248.576 202.744 248.784 202.537 249.198C202.329 249.613 202.226 250.286 202.226 251.217V255H201.623V248.113H202.13L202.181 249.071H202.238C202.513 248.343 202.981 247.979 203.641 247.979C204.022 247.979 204.322 248.081 204.542 248.284C204.763 248.487 204.921 248.784 205.019 249.173C205.184 248.75 205.387 248.445 205.628 248.259C205.869 248.073 206.182 247.979 206.567 247.979C207.088 247.979 207.469 248.181 207.71 248.583C207.951 248.98 208.072 249.619 208.072 250.5V255H207.475ZM212.566 255L212.49 254.035H212.464C212.134 254.763 211.635 255.127 210.966 255.127C210.518 255.127 210.156 254.949 209.881 254.594C209.61 254.234 209.475 253.754 209.475 253.153C209.475 252.497 209.671 251.979 210.065 251.598C210.458 251.213 211.011 251.003 211.722 250.969L212.464 250.931V250.36C212.464 249.717 212.384 249.249 212.223 248.957C212.062 248.661 211.796 248.513 211.423 248.513C211.03 248.513 210.628 248.642 210.217 248.9L209.957 248.424C210.435 248.128 210.937 247.979 211.461 247.979C212.028 247.979 212.437 248.159 212.687 248.519C212.936 248.875 213.061 249.471 213.061 250.309V255H212.566ZM211.1 254.613C211.531 254.613 211.866 254.401 212.103 253.978C212.344 253.551 212.464 252.948 212.464 252.169V251.452L211.747 251.49C211.193 251.519 210.78 251.674 210.509 251.953C210.243 252.228 210.109 252.632 210.109 253.166C210.109 253.665 210.198 254.031 210.376 254.264C210.554 254.496 210.795 254.613 211.1 254.613ZM210.82 247.123V246.989C211.358 246.287 211.762 245.637 212.033 245.041H212.826V245.148C212.661 245.445 212.409 245.785 212.071 246.17C211.736 246.556 211.419 246.873 211.119 247.123H210.82ZM217.581 253.273C217.581 253.853 217.428 254.308 217.124 254.638C216.819 254.964 216.379 255.127 215.803 255.127C215.49 255.127 215.215 255.087 214.978 255.006C214.741 254.926 214.557 254.837 214.426 254.74V254.035C214.582 254.192 214.79 254.319 215.048 254.416C215.306 254.509 215.57 254.556 215.841 254.556C216.197 254.556 216.476 254.439 216.679 254.207C216.882 253.974 216.984 253.663 216.984 253.273C216.984 252.969 216.91 252.713 216.762 252.505C216.618 252.294 216.341 252.055 215.93 251.788C215.46 251.492 215.139 251.255 214.965 251.077C214.796 250.899 214.663 250.701 214.565 250.48C214.472 250.26 214.426 249.998 214.426 249.693C214.426 249.198 214.593 248.79 214.927 248.468C215.262 248.142 215.687 247.979 216.203 247.979C216.757 247.979 217.221 248.111 217.593 248.373L217.282 248.9C216.935 248.667 216.567 248.551 216.178 248.551C215.822 248.551 215.539 248.657 215.327 248.868C215.116 249.076 215.01 249.351 215.01 249.693C215.01 249.998 215.082 250.254 215.226 250.461C215.369 250.665 215.674 250.912 216.14 251.204C216.597 251.505 216.91 251.746 217.079 251.928C217.248 252.105 217.373 252.304 217.454 252.524C217.538 252.74 217.581 252.99 217.581 253.273ZM223.643 255.127C223.296 255.127 222.978 255.032 222.69 254.841C222.407 254.647 222.191 254.382 222.043 254.048H221.986L222.03 254.803V258.123H221.427V248.113H221.922L221.986 249.059H222.043C222.212 248.712 222.428 248.445 222.69 248.259C222.957 248.073 223.247 247.979 223.56 247.979C224.906 247.979 225.579 249.167 225.579 251.541C225.579 252.687 225.414 253.572 225.083 254.194C224.753 254.816 224.273 255.127 223.643 255.127ZM223.522 248.551C223.018 248.551 222.644 248.773 222.398 249.217C222.153 249.662 222.03 250.358 222.03 251.306V251.502C222.03 252.56 222.155 253.339 222.405 253.838C222.654 254.333 223.035 254.581 223.547 254.581C224.021 254.581 224.373 254.336 224.601 253.845C224.834 253.35 224.95 252.582 224.95 251.541C224.95 250.546 224.842 249.799 224.626 249.3C224.411 248.8 224.042 248.551 223.522 248.551ZM230.98 251.541C230.98 252.7 230.796 253.589 230.428 254.207C230.064 254.82 229.542 255.127 228.86 255.127C228.188 255.127 227.671 254.82 227.312 254.207C226.956 253.589 226.778 252.7 226.778 251.541C226.778 249.167 227.481 247.979 228.886 247.979C229.546 247.979 230.06 248.291 230.428 248.913C230.796 249.535 230.98 250.411 230.98 251.541ZM227.407 251.541C227.407 252.535 227.525 253.286 227.762 253.794C227.999 254.302 228.369 254.556 228.873 254.556C229.859 254.556 230.352 253.551 230.352 251.541C230.352 249.547 229.859 248.551 228.873 248.551C228.357 248.551 227.982 248.8 227.75 249.3C227.521 249.799 227.407 250.546 227.407 251.541ZM234.713 255.127C234.366 255.127 234.049 255.032 233.761 254.841C233.477 254.647 233.261 254.382 233.113 254.048H233.056L233.101 254.803V258.123H232.498V248.113H232.993L233.056 249.059H233.113C233.283 248.712 233.498 248.445 233.761 248.259C234.027 248.073 234.317 247.979 234.63 247.979C235.976 247.979 236.649 249.167 236.649 251.541C236.649 252.687 236.484 253.572 236.154 254.194C235.824 254.816 235.343 255.127 234.713 255.127ZM234.592 248.551C234.089 248.551 233.714 248.773 233.469 249.217C233.223 249.662 233.101 250.358 233.101 251.306V251.502C233.101 252.56 233.225 253.339 233.475 253.838C233.725 254.333 234.106 254.581 234.618 254.581C235.092 254.581 235.443 254.336 235.671 253.845C235.904 253.35 236.021 252.582 236.021 251.541C236.021 250.546 235.913 249.799 235.697 249.3C235.481 248.8 235.113 248.551 234.592 248.551ZM238.75 248.113V252.607C238.75 253.288 238.83 253.785 238.991 254.099C239.156 254.412 239.408 254.568 239.747 254.568C240.267 254.568 240.648 254.359 240.889 253.94C241.135 253.517 241.257 252.835 241.257 251.896V248.113H241.854V255H241.346L241.27 254.035H241.219C241.071 254.386 240.866 254.657 240.604 254.848C240.341 255.034 240.056 255.127 239.747 255.127C239.192 255.127 238.786 254.93 238.528 254.537C238.274 254.143 238.147 253.5 238.147 252.607V248.113H238.75ZM244.298 255H243.695V245.123H244.298V255ZM248.811 255L248.735 254.035H248.709C248.379 254.763 247.88 255.127 247.211 255.127C246.763 255.127 246.401 254.949 246.126 254.594C245.855 254.234 245.72 253.754 245.72 253.153C245.72 252.497 245.917 251.979 246.31 251.598C246.704 251.213 247.256 251.003 247.967 250.969L248.709 250.931V250.36C248.709 249.717 248.629 249.249 248.468 248.957C248.307 248.661 248.041 248.513 247.668 248.513C247.275 248.513 246.873 248.642 246.462 248.9L246.202 248.424C246.68 248.128 247.182 247.979 247.707 247.979C248.274 247.979 248.682 248.159 248.932 248.519C249.181 248.875 249.306 249.471 249.306 250.309V255H248.811ZM247.345 254.613C247.776 254.613 248.111 254.401 248.348 253.978C248.589 253.551 248.709 252.948 248.709 252.169V251.452L247.992 251.49C247.438 251.519 247.025 251.674 246.754 251.953C246.488 252.228 246.354 252.632 246.354 253.166C246.354 253.665 246.443 254.031 246.621 254.264C246.799 254.496 247.04 254.613 247.345 254.613ZM253.032 247.979C253.248 247.979 253.449 248.009 253.635 248.068L253.489 248.671C253.337 248.608 253.18 248.576 253.02 248.576C252.787 248.576 252.569 248.697 252.366 248.938C252.167 249.175 252.01 249.507 251.896 249.935C251.782 250.362 251.725 250.834 251.725 251.35V255H251.122V248.113H251.617L251.68 249.319H251.725C252.046 248.426 252.482 247.979 253.032 247.979ZM256.631 255.127C255.903 255.127 255.343 254.818 254.949 254.2C254.56 253.578 254.365 252.713 254.365 251.604C254.365 250.428 254.539 249.53 254.886 248.913C255.237 248.291 255.741 247.979 256.396 247.979C256.968 247.979 257.418 248.252 257.749 248.798C258.079 249.34 258.244 250.072 258.244 250.995V251.553H254.981C254.989 252.556 255.131 253.307 255.406 253.807C255.681 254.306 256.098 254.556 256.657 254.556C257.088 254.556 257.543 254.414 258.021 254.13V254.714C257.581 254.989 257.118 255.127 256.631 255.127ZM256.358 248.525C255.529 248.525 255.074 249.353 254.994 251.007H257.641C257.641 250.25 257.524 249.647 257.292 249.198C257.063 248.75 256.752 248.525 256.358 248.525ZM262.484 253.273C262.484 253.853 262.332 254.308 262.027 254.638C261.722 254.964 261.282 255.127 260.707 255.127C260.393 255.127 260.118 255.087 259.881 255.006C259.644 254.926 259.46 254.837 259.329 254.74V254.035C259.486 254.192 259.693 254.319 259.951 254.416C260.209 254.509 260.474 254.556 260.745 254.556C261.1 254.556 261.379 254.439 261.583 254.207C261.786 253.974 261.887 253.663 261.887 253.273C261.887 252.969 261.813 252.713 261.665 252.505C261.521 252.294 261.244 252.055 260.833 251.788C260.364 251.492 260.042 251.255 259.869 251.077C259.699 250.899 259.566 250.701 259.469 250.48C259.376 250.26 259.329 249.998 259.329 249.693C259.329 249.198 259.496 248.79 259.831 248.468C260.165 248.142 260.59 247.979 261.106 247.979C261.661 247.979 262.124 248.111 262.497 248.373L262.186 248.9C261.839 248.667 261.47 248.551 261.081 248.551C260.726 248.551 260.442 248.657 260.23 248.868C260.019 249.076 259.913 249.351 259.913 249.693C259.913 249.998 259.985 250.254 260.129 250.461C260.273 250.665 260.577 250.912 261.043 251.204C261.5 251.505 261.813 251.746 261.982 251.928C262.152 252.105 262.277 252.304 262.357 252.524C262.442 252.74 262.484 252.99 262.484 253.273Z" fill="black"/>
<path d="M131.594 178.297H135.047L135.844 193.766H130.797L131.594 178.297ZM135.938 173.094C135.938 173.917 135.714 174.547 135.266 174.984C134.818 175.422 134.167 175.641 133.312 175.641C132.5 175.641 131.87 175.422 131.422 174.984C130.984 174.547 130.766 173.917 130.766 173.094C130.766 172.281 130.99 171.651 131.438 171.203C131.896 170.755 132.521 170.531 133.312 170.531C134.167 170.531 134.818 170.76 135.266 171.219C135.714 171.667 135.938 172.292 135.938 173.094ZM139.734 165.156H145.562C147.938 165.156 149.667 165.62 150.75 166.547C151.833 167.464 152.375 168.927 152.375 170.938C152.375 172.26 152.089 173.37 151.516 174.266C150.943 175.151 150.161 175.688 149.172 175.875V176.031C150.464 176.354 151.396 176.958 151.969 177.844C152.542 178.729 152.828 179.906 152.828 181.375C152.828 183.448 152.271 185.073 151.156 186.25C150.052 187.417 148.536 188 146.609 188H139.734V165.156ZM143.734 174.344H145.688C146.583 174.344 147.214 174.104 147.578 173.625C147.943 173.146 148.125 172.432 148.125 171.484C148.125 170.536 147.917 169.859 147.5 169.453C147.083 169.036 146.427 168.828 145.531 168.828H143.734V174.344ZM143.734 177.891V184.281H145.875C146.76 184.281 147.417 184.01 147.844 183.469C148.281 182.927 148.5 182.089 148.5 180.953C148.5 178.911 147.604 177.891 145.812 177.891H143.734ZM159.891 188H155.734V170.594H159.891V188ZM155.562 166.047C155.562 165.359 155.76 164.818 156.156 164.422C156.562 164.016 157.125 163.812 157.844 163.812C158.521 163.812 159.062 164.016 159.469 164.422C159.875 164.818 160.078 165.359 160.078 166.047C160.078 166.755 159.87 167.307 159.453 167.703C159.036 168.089 158.5 168.281 157.844 168.281C157.156 168.281 156.604 168.089 156.188 167.703C155.771 167.307 155.562 166.755 155.562 166.047ZM169.875 188.312C167.698 188.312 165.979 187.542 164.719 186C163.469 184.448 162.844 182.255 162.844 179.422C162.844 176.547 163.411 174.302 164.547 172.688C165.682 171.073 167.266 170.266 169.297 170.266C171.193 170.266 172.688 170.958 173.781 172.344C174.875 173.719 175.422 175.651 175.422 178.141V180.359H167.062C167.094 181.911 167.411 183.068 168.016 183.828C168.62 184.578 169.453 184.953 170.516 184.953C171.87 184.953 173.255 184.531 174.672 183.688V187.109C173.339 187.911 171.74 188.312 169.875 188.312ZM169.266 173.469C168.672 173.469 168.182 173.786 167.797 174.422C167.411 175.047 167.188 176.021 167.125 177.344H171.344C171.323 176.073 171.13 175.109 170.766 174.453C170.401 173.797 169.901 173.469 169.266 173.469ZM186.844 188V177.625C186.844 176.365 186.693 175.411 186.391 174.766C186.089 174.12 185.599 173.797 184.922 173.797C184.026 173.797 183.37 174.245 182.953 175.141C182.536 176.026 182.328 177.526 182.328 179.641V188H178.172V170.594H181.469L181.969 172.828H182.234C182.609 172.026 183.146 171.401 183.844 170.953C184.542 170.495 185.359 170.266 186.297 170.266C187.88 170.266 189.062 170.807 189.844 171.891C190.635 172.974 191.031 174.557 191.031 176.641V188H186.844ZM197.172 188L192.625 170.594H196.938L199.156 180.672C199.25 181.141 199.359 181.828 199.484 182.734C199.62 183.63 199.703 184.276 199.734 184.672H199.797C199.807 184.359 199.849 183.911 199.922 183.328C200.005 182.745 200.089 182.208 200.172 181.719C200.255 181.229 201.057 177.521 202.578 170.594H206.891L202.328 188H197.172ZM215.094 188.312C212.917 188.312 211.198 187.542 209.938 186C208.688 184.448 208.062 182.255 208.062 179.422C208.062 176.547 208.63 174.302 209.766 172.688C210.901 171.073 212.484 170.266 214.516 170.266C216.411 170.266 217.906 170.958 219 172.344C220.094 173.719 220.641 175.651 220.641 178.141V180.359H212.281C212.312 181.911 212.63 183.068 213.234 183.828C213.839 184.578 214.672 184.953 215.734 184.953C217.089 184.953 218.474 184.531 219.891 183.688V187.109C218.557 187.911 216.958 188.312 215.094 188.312ZM214.484 173.469C213.891 173.469 213.401 173.786 213.016 174.422C212.63 175.047 212.406 176.021 212.344 177.344H216.562C216.542 176.073 216.349 175.109 215.984 174.453C215.62 173.797 215.12 173.469 214.484 173.469ZM232.062 188V177.625C232.062 176.365 231.911 175.411 231.609 174.766C231.307 174.12 230.818 173.797 230.141 173.797C229.245 173.797 228.589 174.245 228.172 175.141C227.755 176.026 227.547 177.526 227.547 179.641V188H223.391V170.594H226.688L227.188 172.828H227.453C227.828 172.026 228.365 171.401 229.062 170.953C229.76 170.495 230.578 170.266 231.516 170.266C233.099 170.266 234.281 170.807 235.062 171.891C235.854 172.974 236.25 174.557 236.25 176.641V188H232.062ZM243.797 188H239.641V170.594H243.797V188ZM239.469 166.047C239.469 165.359 239.667 164.818 240.062 164.422C240.469 164.016 241.031 163.812 241.75 163.812C242.427 163.812 242.969 164.016 243.375 164.422C243.781 164.818 243.984 165.359 243.984 166.047C243.984 166.755 243.776 167.307 243.359 167.703C242.943 168.089 242.406 168.281 241.75 168.281C241.062 168.281 240.51 168.089 240.094 167.703C239.677 167.307 239.469 166.755 239.469 166.047ZM251.938 188.312C250.333 188.312 249.068 187.521 248.141 185.938C247.214 184.354 246.75 182.151 246.75 179.328C246.75 176.495 247.203 174.276 248.109 172.672C249.016 171.068 250.266 170.266 251.859 170.266C252.651 170.266 253.333 170.464 253.906 170.859C254.49 171.245 255.026 171.901 255.516 172.828H255.766C255.641 171.245 255.578 170.135 255.578 169.5V163.688H259.734V188H256.641L255.938 185.734H255.797C254.911 187.453 253.625 188.312 251.938 188.312ZM253.281 184.797C254.052 184.797 254.615 184.448 254.969 183.75C255.323 183.042 255.516 181.76 255.547 179.906V179.359C255.547 177.339 255.365 175.917 255 175.094C254.646 174.271 254.057 173.859 253.234 173.859C252.464 173.859 251.901 174.333 251.547 175.281C251.203 176.219 251.031 177.589 251.031 179.391C251.031 181.193 251.208 182.547 251.562 183.453C251.917 184.349 252.49 184.797 253.281 184.797ZM276.125 179.266C276.125 182.12 275.521 184.344 274.312 185.938C273.104 187.521 271.448 188.312 269.344 188.312C268.01 188.312 266.833 187.948 265.812 187.219C264.792 186.49 264.005 185.443 263.453 184.078C262.901 182.703 262.625 181.099 262.625 179.266C262.625 176.443 263.224 174.24 264.422 172.656C265.62 171.062 267.281 170.266 269.406 170.266C271.458 170.266 273.089 171.078 274.297 172.703C275.516 174.318 276.125 176.505 276.125 179.266ZM266.875 179.266C266.875 181.078 267.073 182.448 267.469 183.375C267.865 184.302 268.5 184.766 269.375 184.766C271.042 184.766 271.875 182.932 271.875 179.266C271.875 177.443 271.672 176.083 271.266 175.188C270.87 174.281 270.24 173.828 269.375 173.828C268.5 173.828 267.865 174.281 267.469 175.188C267.073 176.083 266.875 177.443 266.875 179.266ZM283.328 180.641H279.906L279.141 165.156H284.125L283.328 180.641ZM279.016 185.859C279.016 185.047 279.229 184.417 279.656 183.969C280.094 183.521 280.74 183.297 281.594 183.297C282.448 183.297 283.094 183.521 283.531 183.969C283.969 184.406 284.188 185.036 284.188 185.859C284.188 186.672 283.958 187.302 283.5 187.75C283.052 188.198 282.417 188.422 281.594 188.422C280.75 188.422 280.109 188.198 279.672 187.75C279.234 187.292 279.016 186.661 279.016 185.859Z" fill="black"/>
<path d="M98.2588 208.634C98.2588 209.688 97.9658 210.544 97.3799 211.2C96.7939 211.851 96.0498 212.176 95.1475 212.176C94.1221 212.176 93.2988 212.026 92.6777 211.728V210.796C92.9824 210.966 93.3604 211.101 93.8115 211.2C94.2627 211.3 94.708 211.35 95.1475 211.35C95.8037 211.35 96.3428 211.101 96.7646 210.603C97.1865 210.104 97.3975 209.472 97.3975 208.704C97.3975 207.995 97.248 207.433 96.9492 207.017C96.6504 206.601 96.0791 206.185 95.2354 205.769C94.5732 205.435 94.0781 205.112 93.75 204.802C93.4219 204.485 93.1787 204.119 93.0205 203.703C92.8623 203.287 92.7832 202.789 92.7832 202.209C92.7832 201.576 92.9121 201.014 93.1699 200.521C93.4277 200.029 93.7881 199.648 94.251 199.379C94.7139 199.104 95.2207 198.966 95.7715 198.966C96.2695 198.966 96.7207 199.021 97.125 199.133C97.5352 199.244 97.8574 199.364 98.0918 199.493L97.7578 200.319C97.1074 199.985 96.4453 199.818 95.7715 199.818C95.1387 199.818 94.623 200.035 94.2246 200.469C93.832 200.896 93.6357 201.465 93.6357 202.174C93.6357 202.895 93.7793 203.454 94.0664 203.853C94.3535 204.251 94.916 204.664 95.7539 205.092C96.6211 205.514 97.2539 206.009 97.6523 206.577C98.0566 207.14 98.2588 207.825 98.2588 208.634ZM105.686 207.21C105.686 208.815 105.431 210.046 104.921 210.901C104.417 211.751 103.693 212.176 102.75 212.176C101.818 212.176 101.104 211.751 100.605 210.901C100.113 210.046 99.8672 208.815 99.8672 207.21C99.8672 203.923 100.84 202.279 102.785 202.279C103.699 202.279 104.411 202.71 104.921 203.571C105.431 204.433 105.686 205.646 105.686 207.21ZM100.737 207.21C100.737 208.587 100.901 209.627 101.229 210.33C101.558 211.033 102.07 211.385 102.768 211.385C104.133 211.385 104.815 209.993 104.815 207.21C104.815 204.45 104.133 203.07 102.768 203.07C102.053 203.07 101.534 203.416 101.212 204.107C100.896 204.799 100.737 205.833 100.737 207.21ZM115.89 212V205.505C115.89 203.905 115.421 203.105 114.483 203.105C113.839 203.105 113.373 203.387 113.086 203.949C112.805 204.506 112.664 205.329 112.664 206.419V212H111.838V205.505C111.838 204.696 111.724 204.096 111.495 203.703C111.267 203.305 110.912 203.105 110.432 203.105C109.799 203.105 109.339 203.393 109.052 203.967C108.765 204.541 108.621 205.473 108.621 206.762V212H107.786V202.464H108.489L108.56 203.791H108.639C109.02 202.783 109.667 202.279 110.581 202.279C111.108 202.279 111.524 202.42 111.829 202.701C112.134 202.982 112.354 203.393 112.488 203.932C112.717 203.346 112.998 202.924 113.332 202.666C113.666 202.408 114.1 202.279 114.633 202.279C115.354 202.279 115.881 202.558 116.215 203.114C116.549 203.665 116.716 204.55 116.716 205.769V212H115.89ZM124.617 207.21C124.617 208.815 124.362 210.046 123.853 210.901C123.349 211.751 122.625 212.176 121.682 212.176C120.75 212.176 120.035 211.751 119.537 210.901C119.045 210.046 118.799 208.815 118.799 207.21C118.799 203.923 119.771 202.279 121.717 202.279C122.631 202.279 123.343 202.71 123.853 203.571C124.362 204.433 124.617 205.646 124.617 207.21ZM119.669 207.21C119.669 208.587 119.833 209.627 120.161 210.33C120.489 211.033 121.002 211.385 121.699 211.385C123.064 211.385 123.747 209.993 123.747 207.21C123.747 204.45 123.064 203.07 121.699 203.07C120.984 203.07 120.466 203.416 120.144 204.107C119.827 204.799 119.669 205.833 119.669 207.21ZM130.462 209.609C130.462 210.412 130.251 211.042 129.829 211.499C129.407 211.95 128.798 212.176 128.001 212.176C127.567 212.176 127.187 212.12 126.858 212.009C126.53 211.897 126.275 211.774 126.094 211.64V210.664C126.311 210.881 126.598 211.057 126.955 211.191C127.312 211.32 127.679 211.385 128.054 211.385C128.546 211.385 128.933 211.224 129.214 210.901C129.495 210.579 129.636 210.148 129.636 209.609C129.636 209.188 129.533 208.833 129.328 208.546C129.129 208.253 128.745 207.922 128.177 207.553C127.526 207.143 127.081 206.814 126.841 206.568C126.606 206.322 126.422 206.047 126.287 205.742C126.158 205.438 126.094 205.074 126.094 204.652C126.094 203.967 126.325 203.401 126.788 202.956C127.251 202.505 127.84 202.279 128.555 202.279C129.322 202.279 129.964 202.461 130.479 202.824L130.049 203.554C129.568 203.231 129.059 203.07 128.52 203.07C128.027 203.07 127.635 203.217 127.342 203.51C127.049 203.797 126.902 204.178 126.902 204.652C126.902 205.074 127.002 205.429 127.201 205.716C127.4 205.997 127.822 206.34 128.467 206.744C129.1 207.16 129.533 207.494 129.768 207.746C130.002 207.992 130.175 208.268 130.286 208.572C130.403 208.871 130.462 209.217 130.462 209.609ZM136.588 202.464V208.687C136.588 209.63 136.699 210.318 136.922 210.752C137.15 211.186 137.499 211.402 137.968 211.402C138.688 211.402 139.216 211.112 139.55 210.532C139.89 209.946 140.06 209.003 140.06 207.702V202.464H140.886V212H140.183L140.077 210.664H140.007C139.802 211.15 139.518 211.525 139.154 211.789C138.791 212.047 138.396 212.176 137.968 212.176C137.2 212.176 136.638 211.903 136.28 211.358C135.929 210.813 135.753 209.923 135.753 208.687V202.464H136.588ZM147.741 212V205.426C147.741 203.844 147.272 203.053 146.335 203.053C145.62 203.053 145.096 203.349 144.762 203.94C144.434 204.532 144.27 205.473 144.27 206.762V212H143.435V202.464H144.138L144.208 203.791H144.287C144.486 203.311 144.773 202.938 145.148 202.675C145.523 202.411 145.925 202.279 146.353 202.279C147.091 202.279 147.645 202.528 148.014 203.026C148.383 203.519 148.567 204.312 148.567 205.408V212H147.741ZM154.772 212L154.667 210.664H154.632C154.175 211.672 153.483 212.176 152.558 212.176C151.937 212.176 151.436 211.93 151.055 211.438C150.68 210.939 150.492 210.274 150.492 209.442C150.492 208.534 150.765 207.816 151.31 207.289C151.854 206.756 152.619 206.466 153.604 206.419L154.632 206.366V205.575C154.632 204.685 154.521 204.037 154.298 203.633C154.075 203.223 153.706 203.018 153.19 203.018C152.646 203.018 152.089 203.196 151.521 203.554L151.16 202.895C151.822 202.484 152.517 202.279 153.243 202.279C154.028 202.279 154.594 202.528 154.939 203.026C155.285 203.519 155.458 204.345 155.458 205.505V212H154.772ZM152.742 211.464C153.34 211.464 153.803 211.171 154.131 210.585C154.465 209.993 154.632 209.158 154.632 208.08V207.087L153.639 207.14C152.871 207.181 152.3 207.395 151.925 207.781C151.556 208.162 151.371 208.722 151.371 209.46C151.371 210.151 151.494 210.658 151.74 210.98C151.986 211.303 152.32 211.464 152.742 211.464ZM163.693 212.176C161.842 212.176 160.916 210.532 160.916 207.245C160.916 205.628 161.147 204.397 161.61 203.554C162.073 202.704 162.756 202.279 163.658 202.279C164.086 202.279 164.49 202.402 164.871 202.648C165.258 202.895 165.565 203.234 165.794 203.668H165.864L165.829 202.604V198.324H166.664V212H165.979L165.908 210.664H165.829C165.601 211.15 165.305 211.525 164.941 211.789C164.578 212.047 164.162 212.176 163.693 212.176ZM163.746 211.446C164.414 211.446 164.927 211.139 165.284 210.523C165.647 209.902 165.829 208.991 165.829 207.79V207.245C165.829 205.804 165.653 204.749 165.302 204.081C164.956 203.407 164.426 203.07 163.711 203.07C163.025 203.07 162.533 203.431 162.234 204.151C161.936 204.866 161.786 205.903 161.786 207.263C161.786 208.634 161.941 209.674 162.252 210.383C162.562 211.092 163.061 211.446 163.746 211.446ZM171.929 212.176C170.921 212.176 170.145 211.748 169.6 210.893C169.061 210.031 168.791 208.833 168.791 207.298C168.791 205.669 169.031 204.427 169.512 203.571C169.998 202.71 170.695 202.279 171.604 202.279C172.395 202.279 173.019 202.657 173.476 203.413C173.933 204.163 174.161 205.177 174.161 206.454V207.228H169.644C169.655 208.616 169.852 209.656 170.232 210.348C170.613 211.039 171.19 211.385 171.964 211.385C172.562 211.385 173.191 211.188 173.854 210.796V211.604C173.244 211.985 172.603 212.176 171.929 212.176ZM171.551 203.035C170.402 203.035 169.772 204.181 169.661 206.472H173.326C173.326 205.423 173.165 204.588 172.843 203.967C172.526 203.346 172.096 203.035 171.551 203.035ZM180.516 212H179.681V198.324H180.516V212ZM186.765 212L186.659 210.664H186.624C186.167 211.672 185.476 212.176 184.55 212.176C183.929 212.176 183.428 211.93 183.047 211.438C182.672 210.939 182.484 210.274 182.484 209.442C182.484 208.534 182.757 207.816 183.302 207.289C183.847 206.756 184.611 206.466 185.596 206.419L186.624 206.366V205.575C186.624 204.685 186.513 204.037 186.29 203.633C186.067 203.223 185.698 203.018 185.183 203.018C184.638 203.018 184.081 203.196 183.513 203.554L183.152 202.895C183.814 202.484 184.509 202.279 185.235 202.279C186.021 202.279 186.586 202.528 186.932 203.026C187.277 203.519 187.45 204.345 187.45 205.505V212H186.765ZM184.734 211.464C185.332 211.464 185.795 211.171 186.123 210.585C186.457 209.993 186.624 209.158 186.624 208.08V207.087L185.631 207.14C184.863 207.181 184.292 207.395 183.917 207.781C183.548 208.162 183.363 208.722 183.363 209.46C183.363 210.151 183.486 210.658 183.732 210.98C183.979 211.303 184.312 211.464 184.734 211.464ZM193.708 209.609C193.708 210.412 193.497 211.042 193.075 211.499C192.653 211.95 192.044 212.176 191.247 212.176C190.813 212.176 190.433 212.12 190.104 212.009C189.776 211.897 189.521 211.774 189.34 211.64V210.664C189.557 210.881 189.844 211.057 190.201 211.191C190.559 211.32 190.925 211.385 191.3 211.385C191.792 211.385 192.179 211.224 192.46 210.901C192.741 210.579 192.882 210.148 192.882 209.609C192.882 209.188 192.779 208.833 192.574 208.546C192.375 208.253 191.991 207.922 191.423 207.553C190.772 207.143 190.327 206.814 190.087 206.568C189.853 206.322 189.668 206.047 189.533 205.742C189.404 205.438 189.34 205.074 189.34 204.652C189.34 203.967 189.571 203.401 190.034 202.956C190.497 202.505 191.086 202.279 191.801 202.279C192.568 202.279 193.21 202.461 193.726 202.824L193.295 203.554C192.814 203.231 192.305 203.07 191.766 203.07C191.273 203.07 190.881 203.217 190.588 203.51C190.295 203.797 190.148 204.178 190.148 204.652C190.148 205.074 190.248 205.429 190.447 205.716C190.646 205.997 191.068 206.34 191.713 206.744C192.346 207.16 192.779 207.494 193.014 207.746C193.248 207.992 193.421 208.268 193.532 208.572C193.649 208.871 193.708 209.217 193.708 209.609ZM207.138 212V205.505C207.138 203.905 206.669 203.105 205.731 203.105C205.087 203.105 204.621 203.387 204.334 203.949C204.053 204.506 203.912 205.329 203.912 206.419V212H203.086V205.505C203.086 204.696 202.972 204.096 202.743 203.703C202.515 203.305 202.16 203.105 201.68 203.105C201.047 203.105 200.587 203.393 200.3 203.967C200.013 204.541 199.869 205.473 199.869 206.762V212H199.034V202.464H199.737L199.808 203.791H199.887C200.268 202.783 200.915 202.279 201.829 202.279C202.356 202.279 202.772 202.42 203.077 202.701C203.382 202.982 203.602 203.393 203.736 203.932C203.965 203.346 204.246 202.924 204.58 202.666C204.914 202.408 205.348 202.279 205.881 202.279C206.602 202.279 207.129 202.558 207.463 203.114C207.797 203.665 207.964 204.55 207.964 205.769V212H207.138ZM213.202 212.176C212.194 212.176 211.418 211.748 210.873 210.893C210.334 210.031 210.064 208.833 210.064 207.298C210.064 205.669 210.305 204.427 210.785 203.571C211.271 202.71 211.969 202.279 212.877 202.279C213.668 202.279 214.292 202.657 214.749 203.413C215.206 204.163 215.435 205.177 215.435 206.454V207.228H210.917C210.929 208.616 211.125 209.656 211.506 210.348C211.887 211.039 212.464 211.385 213.237 211.385C213.835 211.385 214.465 211.188 215.127 210.796V211.604C214.518 211.985 213.876 212.176 213.202 212.176ZM212.824 203.035C211.676 203.035 211.046 204.181 210.935 206.472H214.6C214.6 205.423 214.438 204.588 214.116 203.967C213.8 203.346 213.369 203.035 212.824 203.035ZM216.841 216.324C216.595 216.324 216.398 216.274 216.252 216.175V215.384C216.439 215.478 216.624 215.524 216.806 215.524C217.081 215.524 217.274 215.39 217.386 215.12C217.503 214.856 217.562 214.446 217.562 213.89V202.464H218.396V213.767C218.396 214.64 218.271 215.284 218.019 215.7C217.767 216.116 217.374 216.324 216.841 216.324ZM217.438 199.818C217.438 199.555 217.491 199.35 217.597 199.203C217.708 199.057 217.849 198.983 218.019 198.983C218.177 198.983 218.303 199.057 218.396 199.203C218.49 199.35 218.537 199.555 218.537 199.818C218.537 200.07 218.49 200.272 218.396 200.425C218.303 200.571 218.177 200.645 218.019 200.645C217.849 200.645 217.708 200.571 217.597 200.425C217.491 200.272 217.438 200.07 217.438 199.818ZM226.324 207.21C226.324 208.815 226.069 210.046 225.56 210.901C225.056 211.751 224.332 212.176 223.389 212.176C222.457 212.176 221.742 211.751 221.244 210.901C220.752 210.046 220.506 208.815 220.506 207.21C220.506 203.923 221.479 202.279 223.424 202.279C224.338 202.279 225.05 202.71 225.56 203.571C226.069 204.433 226.324 205.646 226.324 207.21ZM221.376 207.21C221.376 208.587 221.54 209.627 221.868 210.33C222.196 211.033 222.709 211.385 223.406 211.385C224.771 211.385 225.454 209.993 225.454 207.21C225.454 204.45 224.771 203.07 223.406 203.07C222.691 203.07 222.173 203.416 221.851 204.107C221.534 204.799 221.376 205.833 221.376 207.21ZM231.07 202.279C231.369 202.279 231.647 202.32 231.905 202.402L231.703 203.237C231.492 203.149 231.275 203.105 231.053 203.105C230.73 203.105 230.429 203.272 230.147 203.606C229.872 203.935 229.655 204.395 229.497 204.986C229.339 205.578 229.26 206.231 229.26 206.946V212H228.425V202.464H229.11L229.198 204.134H229.26C229.705 202.897 230.309 202.279 231.07 202.279ZM236.054 212.176C235.046 212.176 234.27 211.748 233.725 210.893C233.186 210.031 232.916 208.833 232.916 207.298C232.916 205.669 233.156 204.427 233.637 203.571C234.123 202.71 234.82 202.279 235.729 202.279C236.52 202.279 237.144 202.657 237.601 203.413C238.058 204.163 238.286 205.177 238.286 206.454V207.228H233.769C233.78 208.616 233.977 209.656 234.357 210.348C234.738 211.039 235.315 211.385 236.089 211.385C236.687 211.385 237.316 211.188 237.979 210.796V211.604C237.369 211.985 236.728 212.176 236.054 212.176ZM235.676 203.035C234.527 203.035 233.897 204.181 233.786 206.472H237.451C237.451 205.423 237.29 204.588 236.968 203.967C236.651 203.346 236.221 203.035 235.676 203.035ZM244.157 209.609C244.157 210.412 243.946 211.042 243.524 211.499C243.103 211.95 242.493 212.176 241.696 212.176C241.263 212.176 240.882 212.12 240.554 212.009C240.226 211.897 239.971 211.774 239.789 211.64V210.664C240.006 210.881 240.293 211.057 240.65 211.191C241.008 211.32 241.374 211.385 241.749 211.385C242.241 211.385 242.628 211.224 242.909 210.901C243.19 210.579 243.331 210.148 243.331 209.609C243.331 209.188 243.229 208.833 243.023 208.546C242.824 208.253 242.44 207.922 241.872 207.553C241.222 207.143 240.776 206.814 240.536 206.568C240.302 206.322 240.117 206.047 239.982 205.742C239.854 205.438 239.789 205.074 239.789 204.652C239.789 203.967 240.021 203.401 240.483 202.956C240.946 202.505 241.535 202.279 242.25 202.279C243.018 202.279 243.659 202.461 244.175 202.824L243.744 203.554C243.264 203.231 242.754 203.07 242.215 203.07C241.723 203.07 241.33 203.217 241.037 203.51C240.744 203.797 240.598 204.178 240.598 204.652C240.598 205.074 240.697 205.429 240.896 205.716C241.096 205.997 241.518 206.34 242.162 206.744C242.795 207.16 243.229 207.494 243.463 207.746C243.697 207.992 243.87 208.268 243.981 208.572C244.099 208.871 244.157 209.217 244.157 209.609ZM251.812 212.176C249.961 212.176 249.035 210.532 249.035 207.245C249.035 205.628 249.267 204.397 249.729 203.554C250.192 202.704 250.875 202.279 251.777 202.279C252.205 202.279 252.609 202.402 252.99 202.648C253.377 202.895 253.685 203.234 253.913 203.668H253.983L253.948 202.604V198.324H254.783V212H254.098L254.027 210.664H253.948C253.72 211.15 253.424 211.525 253.061 211.789C252.697 212.047 252.281 212.176 251.812 212.176ZM251.865 211.446C252.533 211.446 253.046 211.139 253.403 210.523C253.767 209.902 253.948 208.991 253.948 207.79V207.245C253.948 205.804 253.772 204.749 253.421 204.081C253.075 203.407 252.545 203.07 251.83 203.07C251.145 203.07 250.652 203.431 250.354 204.151C250.055 204.866 249.905 205.903 249.905 207.263C249.905 208.634 250.061 209.674 250.371 210.383C250.682 211.092 251.18 211.446 251.865 211.446ZM260.048 212.176C259.04 212.176 258.264 211.748 257.719 210.893C257.18 210.031 256.91 208.833 256.91 207.298C256.91 205.669 257.15 204.427 257.631 203.571C258.117 202.71 258.814 202.279 259.723 202.279C260.514 202.279 261.138 202.657 261.595 203.413C262.052 204.163 262.28 205.177 262.28 206.454V207.228H257.763C257.774 208.616 257.971 209.656 258.352 210.348C258.732 211.039 259.31 211.385 260.083 211.385C260.681 211.385 261.311 211.188 261.973 210.796V211.604C261.363 211.985 260.722 212.176 260.048 212.176ZM259.67 203.035C258.521 203.035 257.892 204.181 257.78 206.472H261.445C261.445 205.423 261.284 204.588 260.962 203.967C260.646 203.346 260.215 203.035 259.67 203.035ZM265.242 212H264.407V198.324H265.242V212ZM268.635 212H267.8V202.464H268.635V212ZM267.677 199.818C267.677 199.555 267.729 199.35 267.835 199.203C267.946 199.057 268.087 198.983 268.257 198.983C268.415 198.983 268.541 199.057 268.635 199.203C268.729 199.35 268.775 199.555 268.775 199.818C268.775 200.07 268.729 200.272 268.635 200.425C268.541 200.571 268.415 200.645 268.257 200.645C268.087 200.645 267.946 200.571 267.835 200.425C267.729 200.272 267.677 200.07 267.677 199.818ZM272.256 212L270.006 202.464H270.85L272.273 208.599C272.438 209.308 272.596 210.081 272.748 210.919H272.818C272.859 210.614 272.918 210.274 272.994 209.899C273.07 209.524 273.647 207.046 274.726 202.464H275.569L273.249 212H272.256ZM279.647 212.176C278.64 212.176 277.863 211.748 277.318 210.893C276.779 210.031 276.51 208.833 276.51 207.298C276.51 205.669 276.75 204.427 277.23 203.571C277.717 202.71 278.414 202.279 279.322 202.279C280.113 202.279 280.737 202.657 281.194 203.413C281.651 204.163 281.88 205.177 281.88 206.454V207.228H277.362C277.374 208.616 277.57 209.656 277.951 210.348C278.332 211.039 278.909 211.385 279.683 211.385C280.28 211.385 280.91 211.188 281.572 210.796V211.604C280.963 211.985 280.321 212.176 279.647 212.176ZM279.27 203.035C278.121 203.035 277.491 204.181 277.38 206.472H281.045C281.045 205.423 280.884 204.588 280.562 203.967C280.245 203.346 279.814 203.035 279.27 203.035ZM286.652 202.279C286.951 202.279 287.229 202.32 287.487 202.402L287.285 203.237C287.074 203.149 286.857 203.105 286.635 203.105C286.312 203.105 286.011 203.272 285.729 203.606C285.454 203.935 285.237 204.395 285.079 204.986C284.921 205.578 284.842 206.231 284.842 206.946V212H284.007V202.464H284.692L284.78 204.134H284.842C285.287 202.897 285.891 202.279 286.652 202.279ZM290.124 211.982L287.742 202.464H288.586L290.027 208.414C290.197 209.129 290.361 209.935 290.52 210.831H290.59C290.701 210.052 290.856 209.24 291.056 208.396L292.462 202.464H293.306L290.52 213.802C290.314 214.64 290.045 215.27 289.711 215.691C289.383 216.113 288.943 216.324 288.393 216.324C288.17 216.324 287.918 216.274 287.637 216.175V215.419C287.871 215.501 288.1 215.542 288.322 215.542C288.674 215.542 288.952 215.39 289.157 215.085C289.362 214.786 289.544 214.303 289.702 213.635L290.124 211.982ZM301.761 212L301.655 210.664H301.62C301.163 211.672 300.472 212.176 299.546 212.176C298.925 212.176 298.424 211.93 298.043 211.438C297.668 210.939 297.48 210.274 297.48 209.442C297.48 208.534 297.753 207.816 298.298 207.289C298.843 206.756 299.607 206.466 300.592 206.419L301.62 206.366V205.575C301.62 204.685 301.509 204.037 301.286 203.633C301.063 203.223 300.694 203.018 300.179 203.018C299.634 203.018 299.077 203.196 298.509 203.554L298.148 202.895C298.811 202.484 299.505 202.279 300.231 202.279C301.017 202.279 301.582 202.528 301.928 203.026C302.273 203.519 302.446 204.345 302.446 205.505V212H301.761ZM299.73 211.464C300.328 211.464 300.791 211.171 301.119 210.585C301.453 209.993 301.62 209.158 301.62 208.08V207.087L300.627 207.14C299.859 207.181 299.288 207.395 298.913 207.781C298.544 208.162 298.359 208.722 298.359 209.46C298.359 210.151 298.482 210.658 298.729 210.98C298.975 211.303 299.309 211.464 299.73 211.464ZM308.027 212.176C307.547 212.176 307.107 212.044 306.709 211.78C306.316 211.511 306.018 211.145 305.812 210.682H305.733L305.795 211.728V216.324H304.96V202.464H305.646L305.733 203.773H305.812C306.047 203.293 306.346 202.924 306.709 202.666C307.078 202.408 307.479 202.279 307.913 202.279C309.776 202.279 310.708 203.923 310.708 207.21C310.708 208.798 310.479 210.022 310.022 210.884C309.565 211.745 308.9 212.176 308.027 212.176ZM307.86 203.07C307.163 203.07 306.645 203.378 306.305 203.993C305.965 204.608 305.795 205.572 305.795 206.885V207.157C305.795 208.622 305.968 209.7 306.313 210.392C306.659 211.077 307.187 211.42 307.896 211.42C308.552 211.42 309.038 211.08 309.354 210.4C309.677 209.715 309.838 208.651 309.838 207.21C309.838 205.833 309.688 204.799 309.39 204.107C309.091 203.416 308.581 203.07 307.86 203.07ZM315.885 212.176C315.404 212.176 314.965 212.044 314.566 211.78C314.174 211.511 313.875 211.145 313.67 210.682H313.591L313.652 211.728V216.324H312.817V202.464H313.503L313.591 203.773H313.67C313.904 203.293 314.203 202.924 314.566 202.666C314.936 202.408 315.337 202.279 315.771 202.279C317.634 202.279 318.565 203.923 318.565 207.21C318.565 208.798 318.337 210.022 317.88 210.884C317.423 211.745 316.758 212.176 315.885 212.176ZM315.718 203.07C315.021 203.07 314.502 203.378 314.162 203.993C313.822 204.608 313.652 205.572 313.652 206.885V207.157C313.652 208.622 313.825 209.7 314.171 210.392C314.517 211.077 315.044 211.42 315.753 211.42C316.409 211.42 316.896 211.08 317.212 210.4C317.534 209.715 317.695 208.651 317.695 207.21C317.695 205.833 317.546 204.799 317.247 204.107C316.948 203.416 316.438 203.07 315.718 203.07ZM324.419 209.609C324.419 210.412 324.208 211.042 323.786 211.499C323.364 211.95 322.755 212.176 321.958 212.176C321.524 212.176 321.144 212.12 320.815 212.009C320.487 211.897 320.232 211.774 320.051 211.64V210.664C320.268 210.881 320.555 211.057 320.912 211.191C321.27 211.32 321.636 211.385 322.011 211.385C322.503 211.385 322.89 211.224 323.171 210.901C323.452 210.579 323.593 210.148 323.593 209.609C323.593 209.188 323.49 208.833 323.285 208.546C323.086 208.253 322.702 207.922 322.134 207.553C321.483 207.143 321.038 206.814 320.798 206.568C320.563 206.322 320.379 206.047 320.244 205.742C320.115 205.438 320.051 205.074 320.051 204.652C320.051 203.967 320.282 203.401 320.745 202.956C321.208 202.505 321.797 202.279 322.512 202.279C323.279 202.279 323.921 202.461 324.437 202.824L324.006 203.554C323.525 203.231 323.016 203.07 322.477 203.07C321.984 203.07 321.592 203.217 321.299 203.51C321.006 203.797 320.859 204.178 320.859 204.652C320.859 205.074 320.959 205.429 321.158 205.716C321.357 205.997 321.779 206.34 322.424 206.744C323.057 207.16 323.49 207.494 323.725 207.746C323.959 207.992 324.132 208.268 324.243 208.572C324.36 208.871 324.419 209.217 324.419 209.609Z" fill="black"/>
<g clip-path="url(#clip0_51_479)">
<path d="M150.118 129.625C149.042 138.071 145.085 145.799 140.864 153.243C140.725 153.497 140.581 153.747 140.434 154H96.5609C95.6736 153.769 94.7977 153.516 93.9255 153.243C88.9702 151.732 84.292 149.426 80.0727 146.416C63.9319 134.765 57.7209 112.751 60.5263 93.0246C62.2706 80.769 67.6395 68.2562 78.0942 61.6555C83.6142 58.1642 90.7048 57.0294 97.0592 58.3269C97.2255 58.3571 97.3916 58.3949 97.5614 58.429C103.029 59.6621 107.899 62.726 110.67 67.6623C115.654 76.5325 112.687 87.5209 110.236 97.3935C107.793 107.266 106.468 119.083 113.559 126.364C111.218 119.461 113.529 111.226 119.12 106.559C123.345 103.037 129.228 101.717 134.593 102.81C135.106 102.92 135.612 103.045 136.111 103.196C137.315 103.549 138.476 104.037 139.573 104.648C147.936 109.328 151.323 120.104 150.118 129.625Z" fill="#CCCCCC"/>
<path d="M124.104 153.243C125.32 153.527 126.539 153.777 127.766 154H121.133C120.264 153.765 119.4 153.516 118.543 153.243C116.659 152.653 114.803 151.976 112.977 151.212C105.653 148.133 98.9056 143.511 93.8009 137.36C91.3044 134.381 89.2658 131.044 87.7523 127.461C86.1113 123.412 85.0683 119.144 84.6564 114.793C83.7313 105.866 84.6752 96.6937 86.4384 87.9256C88.258 78.838 91.1952 70.0115 95.1829 61.648C95.6624 60.6456 96.1582 59.6495 96.6704 58.6597C96.7057 58.5783 96.759 58.5059 96.8264 58.4482C96.8938 58.3905 96.9734 58.349 97.0592 58.3269C97.2335 58.293 97.4141 58.3297 97.5614 58.429C97.7383 58.5306 97.8694 58.6964 97.9277 58.8921C97.986 59.0878 97.9671 59.2984 97.8748 59.4805C93.7634 67.5132 90.6468 76.0189 88.5943 84.8088C86.5857 93.3839 85.4455 102.356 85.8343 111.173C86.2043 119.412 88.3528 127.514 93.227 134.251C97.6785 140.402 103.825 145.251 110.625 148.553C114.929 150.616 119.45 152.189 124.104 153.243Z" fill="white"/>
<path d="M138.663 154H136.707C136.488 153.75 136.277 153.497 136.069 153.244C131.614 147.821 128.596 141.36 127.295 134.459C125.714 125.847 126.943 116.954 130.802 109.097C131.879 106.894 133.147 104.79 134.593 102.81C135.106 102.92 135.612 103.045 136.111 103.196C132.308 108.243 129.75 114.12 128.646 120.346C127.661 126.181 127.989 132.161 129.605 137.853C131.221 143.544 134.085 148.802 137.987 153.244C138.206 153.497 138.433 153.75 138.663 154Z" fill="white"/>
<path d="M314.849 147.567C315.133 149.796 316.177 151.836 317.292 153.8C317.328 153.867 317.366 153.933 317.405 154H328.984C329.218 153.939 329.449 153.872 329.679 153.8C330.987 153.401 332.222 152.793 333.335 151.998C337.595 148.924 339.235 143.114 338.494 137.907C338.034 134.673 336.617 131.371 333.858 129.629C332.359 128.714 330.572 128.401 328.852 128.75C328.809 128.758 328.765 128.768 328.72 128.777C328.004 128.916 327.326 129.204 326.73 129.624C326.133 130.044 325.633 130.586 325.26 131.214C323.945 133.555 324.728 136.455 325.375 139.06C326.019 141.666 326.369 144.785 324.498 146.706C324.772 145.903 324.828 145.04 324.659 144.208C324.491 143.376 324.104 142.603 323.539 141.97C322.973 141.337 322.25 140.866 321.443 140.606C320.636 140.346 319.774 140.306 318.947 140.49C318.811 140.519 318.678 140.552 318.546 140.592C318.228 140.685 317.922 140.814 317.632 140.975C315.425 142.21 314.531 145.054 314.849 147.567Z" fill="#F2F2F2"/>
<path d="M321.715 153.8C321.394 153.875 321.072 153.941 320.748 154H322.499C322.728 153.938 322.956 153.872 323.182 153.8C323.68 153.645 324.169 153.466 324.651 153.264C326.606 152.469 328.342 151.215 329.712 149.609C330.371 148.822 330.909 147.942 331.309 146.996C331.742 145.927 332.017 144.801 332.126 143.653C332.324 141.279 332.166 138.888 331.655 136.562C331.175 134.163 330.4 131.834 329.347 129.627C329.221 129.362 329.09 129.099 328.955 128.838C328.946 128.816 328.931 128.797 328.914 128.782C328.896 128.767 328.875 128.756 328.852 128.75C328.806 128.741 328.759 128.751 328.72 128.777C328.673 128.804 328.638 128.848 328.623 128.899C328.608 128.951 328.613 129.007 328.637 129.055C329.722 131.175 330.545 133.419 331.086 135.739C331.644 138.015 331.889 140.356 331.815 142.697C331.775 144.875 331.096 146.993 329.864 148.788C328.665 150.404 327.088 151.7 325.272 152.562C324.136 153.107 322.943 153.522 321.715 153.8Z" fill="white"/>
<path d="M317.872 154H318.388C318.446 153.934 318.502 153.867 318.557 153.8C319.733 152.369 320.529 150.664 320.873 148.843C321.29 146.57 320.965 144.223 319.947 142.149C319.663 141.568 319.328 141.013 318.947 140.49C318.811 140.519 318.677 140.552 318.546 140.592C319.55 141.924 320.225 143.475 320.516 145.118C320.776 146.658 320.689 148.236 320.263 149.738C319.836 151.24 319.081 152.628 318.051 153.8C317.993 153.867 317.933 153.934 317.872 154Z" fill="white"/>
<path d="M210.483 96.3833H174.244L173.86 85.2206C173.844 84.7367 173.932 84.2549 174.119 83.8085C174.306 83.362 174.587 82.9614 174.944 82.6344C175.3 82.3073 175.723 82.0614 176.183 81.9138C176.643 81.7661 177.13 81.7201 177.61 81.7789L198.698 84.366H198.701C201.827 84.3744 204.823 85.6241 207.031 87.8411C209.24 90.0582 210.481 93.0619 210.483 96.1941V96.3833Z" fill="#716DF2"/>
<path d="M194.331 56.7874H169.057C168.72 56.7873 168.388 56.8535 168.077 56.9824C167.766 57.1112 167.484 57.3001 167.247 57.5382C167.009 57.7763 166.82 58.059 166.692 58.3702C166.563 58.6813 166.497 59.0148 166.497 59.3516V84.673C166.497 85.0098 166.563 85.3433 166.692 85.6544C166.82 85.9656 167.009 86.2483 167.247 86.4864C167.484 86.7245 167.766 86.9134 168.077 87.0422C168.388 87.1711 168.72 87.2373 169.057 87.2372H194.331C194.668 87.2373 195 87.1711 195.311 87.0422C195.622 86.9134 195.904 86.7245 196.141 86.4864C196.379 86.2483 196.568 85.9656 196.696 85.6544C196.825 85.3433 196.891 85.0098 196.891 84.673V59.3516C196.891 59.0148 196.825 58.6813 196.696 58.3702C196.568 58.059 196.379 57.7763 196.141 57.5382C195.904 57.3001 195.622 57.1112 195.311 56.9824C195 56.8535 194.668 56.7873 194.331 56.7874Z" fill="#CCCCCC"/>
<path d="M188.639 75.7218L176.706 78.0499C175.998 78.1872 175.265 78.0376 174.667 77.6339C174.069 77.2301 173.655 76.6053 173.517 75.8965L172.599 71.1772C172.462 70.4681 172.612 69.7334 173.015 69.1344C173.418 68.5355 174.041 68.1211 174.749 67.9822L186.682 65.6541C187.39 65.5168 188.123 65.6665 188.721 66.0702C189.319 66.4739 189.733 67.0987 189.871 67.8076L190.789 72.5268C190.926 73.2359 190.776 73.9706 190.373 74.5696C189.97 75.1685 189.347 75.5829 188.639 75.7218Z" fill="#3F3D56"/>
<path d="M186.252 70.1464L177.145 71.9232C176.978 71.9557 176.805 71.9206 176.665 71.8255C176.524 71.7305 176.427 71.5834 176.394 71.4165C176.362 71.2496 176.397 71.0766 176.492 70.9357C176.586 70.7947 176.733 70.6972 176.9 70.6647L186.007 68.888C186.174 68.8555 186.346 68.8906 186.487 68.9856C186.628 69.0807 186.725 69.2278 186.757 69.3947C186.79 69.5616 186.755 69.7345 186.66 69.8755C186.565 70.0165 186.418 70.1139 186.252 70.1464Z" fill="white"/>
<path d="M184.482 72.7776L179.771 73.6966C179.604 73.7291 179.432 73.694 179.291 73.5989C179.15 73.5039 179.053 73.3568 179.021 73.1899C178.988 73.023 179.023 72.8501 179.118 72.7091C179.213 72.5681 179.36 72.4706 179.526 72.4381L184.237 71.5191C184.319 71.5031 184.404 71.5034 184.487 71.5201C184.569 71.5369 184.647 71.5697 184.717 71.6168C184.787 71.6638 184.846 71.7242 184.893 71.7944C184.939 71.8645 184.971 71.9432 184.987 72.0258C185.003 72.1085 185.003 72.1935 184.986 72.276C184.97 72.3585 184.937 72.4368 184.89 72.5067C184.843 72.5765 184.783 72.6363 184.713 72.6828C184.643 72.7293 184.564 72.7615 184.482 72.7776Z" fill="white"/>
<path d="M196.891 59.3516V62.7171H166.497V59.3516C166.497 59.0148 166.563 58.6813 166.692 58.3702C166.82 58.059 167.009 57.7763 167.247 57.5382C167.484 57.3001 167.766 57.1112 168.077 56.9824C168.388 56.8535 168.72 56.7873 169.057 56.7874H194.331C194.668 56.7873 195 56.8535 195.311 56.9824C195.622 57.1112 195.904 57.3001 196.141 57.5382C196.379 57.7763 196.568 58.059 196.696 58.3702C196.825 58.6813 196.891 59.0148 196.891 59.3516Z" fill="#B3B3B3"/>
<path d="M257.584 63.7709C257.409 63.2035 257.111 62.6815 256.713 62.2417C256.314 61.8019 255.824 61.455 255.277 61.2255C254.73 60.9959 254.14 60.8893 253.547 60.9132C252.955 60.937 252.375 61.0907 251.848 61.3634L217.076 48.8647L215.544 57.5674L250.206 67.1167C250.722 67.9729 251.533 68.6098 252.487 68.9066C253.44 69.2035 254.469 69.1396 255.378 68.7272C256.288 68.3148 257.015 67.5825 257.421 66.669C257.828 65.7555 257.886 64.7244 257.584 63.7709Z" fill="#FFB8B8"/>
<path opacity="0.2" d="M257.584 63.7709C257.409 63.2035 257.111 62.6815 256.713 62.2417C256.314 61.8019 255.824 61.455 255.277 61.2255C254.73 60.9959 254.14 60.8893 253.547 60.9132C252.955 60.937 252.375 61.0907 251.848 61.3634L217.076 48.8647L215.544 57.5674L250.206 67.1167C250.722 67.9729 251.533 68.6098 252.487 68.9066C253.44 69.2035 254.469 69.1396 255.378 68.7272C256.288 68.3148 257.015 67.5825 257.421 66.669C257.828 65.7555 257.886 64.7244 257.584 63.7709Z" fill="black"/>
<path d="M223.248 50.4505L219.964 59.0447C219.871 59.2892 219.726 59.5107 219.539 59.694C219.353 59.8774 219.129 60.0183 218.883 60.1071C218.637 60.196 218.375 60.2308 218.115 60.209C217.854 60.1873 217.601 60.1096 217.374 59.9811L209.393 55.4813C208.147 54.9952 207.145 54.034 206.605 52.8085C206.065 51.5829 206.033 50.1929 206.514 48.9433C206.996 47.6937 207.953 46.6864 209.174 46.1423C210.396 45.5981 211.783 45.5615 213.032 46.0405L221.943 48.0205C222.199 48.0773 222.438 48.1885 222.647 48.3465C222.855 48.5046 223.027 48.7057 223.151 48.9363C223.275 49.167 223.347 49.4216 223.364 49.6829C223.381 49.9442 223.341 50.206 223.248 50.4505Z" fill="#716DF2"/>
<path d="M260.322 71.7286L247.862 77.4025L249.498 83.5723C252.657 95.4866 253.495 107.899 251.967 120.131L261.077 122.037L268.628 102.746L265.985 80.8068L260.322 71.7286Z" fill="#716DF2"/>
<path d="M284.769 100.287C276.582 100.287 269.911 106.249 269.587 113.715H299.95C299.627 106.249 292.955 100.287 284.769 100.287Z" fill="#151515"/>
<path d="M278.396 101.574C277.97 67.8716 258.811 70.9721 258.811 70.9721C258.811 70.9721 259.17 81.4625 259.342 81.7887C271.551 104.93 251.402 132.061 225.754 127.07C225.27 126.976 224.806 126.88 224.36 126.783C221.11 126.104 218.241 124.209 216.336 121.485C214.431 118.762 213.633 115.413 214.104 112.121C216.631 91.7949 204.065 92.1546 204.065 92.1546H185.69L176.148 83.5508C175.811 83.2471 175.405 83.0307 174.965 82.9205C174.526 82.8103 174.066 82.8097 173.626 82.9187C173.186 83.0277 172.779 83.243 172.442 83.5458C172.104 83.8486 171.846 84.2296 171.689 84.6556L170.461 87.9938C170.461 87.9938 152.338 89.8851 153.849 107.663H159.452C159.438 108.168 159.458 108.674 159.512 109.176L201.328 108.836C203.779 108.816 205.942 110.806 205.952 113.261C205.955 113.859 205.837 114.451 205.606 115.002C205.375 115.554 205.035 116.052 204.607 116.469C204.179 116.885 203.671 117.211 203.114 117.427C202.558 117.642 201.964 117.743 201.367 117.723L194.626 117.498C192.549 126.765 197.646 133.007 203.262 136.931C208.55 140.572 214.825 142.503 221.241 142.463H239.556C263.342 142.463 267.495 122.415 267.495 122.415C279.955 117.12 278.396 101.574 278.396 101.574Z" fill="black"/>
<path d="M283.636 153.433C295.366 153.433 304.874 143.907 304.874 132.155C304.874 120.404 295.366 110.878 283.636 110.878C271.907 110.878 262.398 120.404 262.398 132.155C262.398 143.907 271.907 153.433 283.636 153.433Z" fill="black"/>
<path d="M283.636 137.37C286.511 137.37 288.841 135.036 288.841 132.156C288.841 129.275 286.511 126.941 283.636 126.941C280.761 126.941 278.431 129.275 278.431 132.156C278.431 135.036 280.761 137.37 283.636 137.37Z" fill="white"/>
<path d="M176.408 153.433C189.91 153.433 200.855 142.467 200.855 128.94C200.855 115.414 189.91 104.448 176.408 104.448C162.906 104.448 151.961 115.414 151.961 128.94C151.961 142.467 162.906 153.433 176.408 153.433Z" fill="black"/>
<path d="M176.408 134.943C179.717 134.943 182.4 132.256 182.4 128.94C182.4 125.625 179.717 122.937 176.408 122.937C173.099 122.937 170.416 125.625 170.416 128.94C170.416 132.256 173.099 134.943 176.408 134.943Z" fill="white"/>
<path d="M247.897 79.0789L243.414 66.8803C243.181 66.2445 243.074 65.5688 243.101 64.8919C243.128 64.215 243.288 63.55 243.572 62.9349C243.855 62.3198 244.257 61.7668 244.754 61.3072C245.251 60.8477 245.833 60.4907 246.468 60.2567L259.32 55.5166C260.436 55.1047 261.623 54.9171 262.812 54.9646C264.001 55.0121 265.169 55.2938 266.249 55.7935C267.329 56.2932 268.301 57.0012 269.108 57.8771C269.915 58.7529 270.542 59.7795 270.953 60.8981C271.324 61.9021 271.513 62.9643 271.512 64.0348C271.508 65.3941 271.201 66.7353 270.614 67.9608C270.027 69.1863 269.174 70.2654 268.119 71.1196C267.357 71.7324 266.5 72.2165 265.582 72.5529L247.897 79.0789Z" fill="black"/>
<path d="M271.324 64.0348C271.323 65.3664 271.024 66.6809 270.449 67.8814C269.874 69.082 269.037 70.1381 268.001 70.9721C266.411 70.552 264.932 69.7901 263.666 68.7393C262.4 67.6885 261.377 66.3741 260.669 64.8874C259.962 63.4008 259.585 61.7775 259.567 60.1304C259.549 58.4834 259.889 56.8521 260.563 55.35C261.858 55.0678 263.2 55.0798 264.49 55.3851C265.779 55.6904 266.985 56.2813 268.017 57.1142C269.049 57.9472 269.882 59.0011 270.454 60.1987C271.026 61.3963 271.323 62.7071 271.324 64.0348Z" fill="#716DF2"/>
<path d="M157.058 110.122C159.977 110.122 162.344 107.243 162.344 103.691C162.344 100.14 159.977 97.261 157.058 97.261C154.139 97.261 151.772 100.14 151.772 103.691C151.772 107.243 154.139 110.122 157.058 110.122Z" fill="#716DF2"/>
<path d="M226.93 126.454H231.559L233.761 114.426L226.929 114.426L226.93 126.454Z" fill="#FFB8B8"/>
<path d="M225.75 124.94L234.865 124.939H234.866C235.629 124.939 236.384 125.09 237.089 125.382C237.794 125.675 238.434 126.103 238.974 126.644C239.513 127.184 239.941 127.826 240.233 128.532C240.525 129.238 240.675 129.995 240.675 130.759V130.948L225.75 130.949L225.75 124.94Z" fill="black"/>
<path d="M232.303 121.517C232.249 121.517 232.195 121.515 232.141 121.509L225.735 121.042C225.476 121.018 225.226 120.935 225.004 120.798C224.782 120.662 224.595 120.477 224.456 120.256C224.317 120.036 224.23 119.787 224.202 119.527C224.175 119.268 224.207 119.006 224.297 118.761L232.87 99.4647C232.931 99.2926 232.956 99.1098 232.943 98.9276C232.931 98.7454 232.88 98.5678 232.796 98.406C232.711 98.2423 232.593 98.0983 232.449 97.9836C232.306 97.8689 232.139 97.786 231.961 97.7403C227.93 96.6846 217.586 93.8735 208.633 90.5844C204.797 89.1752 202.381 87.1387 201.452 84.5315C200.227 81.0943 202.039 77.9597 202.116 77.8282L202.177 77.7251L210.602 78.4923L219.736 79.2706L239.752 90.0237C241.429 90.9324 242.703 92.4406 243.32 94.248C243.937 96.0555 243.852 98.0295 243.082 99.7768L233.854 120.508C233.72 120.809 233.503 121.064 233.228 121.243C232.952 121.422 232.631 121.517 232.303 121.517Z" fill="black"/>
<path d="M212.067 40.315C217.189 40.315 221.341 36.1555 221.341 31.0246C221.341 25.8936 217.189 21.7341 212.067 21.7341C206.946 21.7341 202.794 25.8936 202.794 31.0246C202.794 36.1555 206.946 40.315 212.067 40.315Z" fill="#FFB8B8"/>
<path d="M224.287 127.588H228.916L231.119 115.561L224.287 115.561L224.287 127.588Z" fill="#FFB8B8"/>
<path d="M223.107 126.074L232.222 126.074H232.223C232.986 126.074 233.741 126.224 234.446 126.517C235.151 126.809 235.791 127.238 236.331 127.779C236.87 128.319 237.298 128.961 237.59 129.667C237.882 130.373 238.032 131.13 238.032 131.894V132.083L223.107 132.084L223.107 126.074Z" fill="black"/>
<path d="M229.66 122.652C229.606 122.652 229.552 122.649 229.498 122.644L223.092 122.177C222.833 122.153 222.583 122.069 222.361 121.933C222.139 121.797 221.951 121.612 221.812 121.391C221.673 121.171 221.587 120.921 221.559 120.662C221.532 120.403 221.564 120.141 221.654 119.896L230.227 100.6C230.288 100.427 230.313 100.245 230.3 100.062C230.287 99.8802 230.237 99.7026 230.153 99.5408C230.068 99.3771 229.95 99.2332 229.806 99.1185C229.662 99.0037 229.496 98.9208 229.318 98.8752C225.286 97.8195 214.943 95.0084 205.989 91.7193C202.153 90.31 199.737 88.2736 198.809 85.6664C197.584 82.2292 199.396 79.0945 199.473 78.963L199.534 78.8599L207.959 79.6272L217.093 80.4055L237.109 91.1585C238.786 92.0672 240.06 93.5754 240.677 95.3829C241.294 97.1903 241.209 99.1643 240.438 100.912L231.211 121.643C231.077 121.943 230.86 122.198 230.584 122.377C230.309 122.556 229.988 122.652 229.66 122.652Z" fill="black"/>
<path d="M214.927 45.583L205.111 42.1787C205.111 42.1787 198.948 46.9221 201.909 58.6892C203.454 64.7615 203.004 71.1712 200.625 76.9668C200.338 77.6838 200.008 78.3826 199.636 79.059C199.636 79.059 210.585 92.2981 220.78 82.4633L216.815 63.3612C216.815 63.3612 223.045 50.6895 214.927 45.583Z" fill="#716DF2"/>
<path d="M213.219 40.6309C211.899 38.6518 210.857 35.9074 212.31 34.0243C213.745 32.1655 216.574 32.4393 218.771 31.6168C221.831 30.4712 223.605 26.8699 223.052 23.6447C222.498 20.4196 219.914 17.746 216.835 16.6521C213.757 15.5581 210.285 15.9139 207.271 17.1736C203.559 18.7244 200.376 21.7242 199.041 25.5242C197.706 29.3242 198.42 33.8868 201.189 36.8075C204.158 39.9389 208.818 40.7734 213.129 40.7228" fill="black"/>
<path d="M204.593 23.7482C202.929 25.1046 200.392 24.5022 198.607 23.3118C196.822 22.1214 195.373 20.4263 193.441 19.493C190.036 17.8476 185.919 18.9414 182.605 20.764C179.29 22.5866 176.353 25.1045 172.852 26.5348C169.351 27.965 164.884 28.0357 162.233 25.3351C161.58 27.2286 161.527 29.2776 162.08 31.2026C162.633 33.1276 163.765 34.8348 165.323 36.0912C166.88 37.3477 168.786 38.0922 170.781 38.2233C172.776 38.3543 174.763 37.8654 176.471 36.8234C180.307 34.4826 182.425 29.5745 186.728 28.2825C189.108 27.5676 191.665 28.1434 194.071 28.7671C196.477 29.3908 198.986 30.0647 201.414 29.5337C203.842 29.0028 206.114 26.8167 205.805 24.346L204.593 23.7482Z" fill="black"/>
<path d="M257.123 63.3926C256.879 62.8511 256.52 62.3699 256.07 61.9827C255.62 61.5956 255.091 61.3119 254.52 61.1517C253.949 60.9916 253.35 60.9588 252.765 61.0556C252.18 61.1525 251.623 61.3768 251.134 61.7125L215.088 53.6075L214.64 62.433L250.213 67.6248C250.83 68.4108 251.714 68.9424 252.697 69.1192C253.679 69.2959 254.693 69.1054 255.544 68.5837C256.396 68.062 257.027 67.2454 257.318 66.2887C257.609 65.3319 257.54 64.3015 257.123 63.3926Z" fill="#FFB8B8"/>
<path d="M221.408 54.4182L219.208 63.3526C219.145 63.6068 219.029 63.8445 218.866 64.0495C218.704 64.2545 218.499 64.422 218.266 64.5406C218.033 64.6592 217.777 64.7261 217.516 64.7367C217.255 64.7473 216.994 64.7014 216.753 64.6021L208.279 61.1231C206.982 60.7955 205.868 59.9658 205.18 58.816C204.493 57.6662 204.289 56.2903 204.613 54.9901C204.938 53.6898 205.764 52.5716 206.91 51.8806C208.056 51.1897 209.429 50.9826 210.727 51.3046L219.815 52.168C220.075 52.1928 220.326 52.2735 220.553 52.4046C220.779 52.5356 220.974 52.714 221.126 52.9276C221.277 53.1411 221.38 53.3848 221.429 53.642C221.478 53.8993 221.471 54.164 221.408 54.4182V54.4182Z" fill="#716DF2"/>
<path d="M252.959 70.4046C254.419 70.4046 255.602 69.2192 255.602 67.7568C255.602 66.2945 254.419 65.109 252.959 65.109C251.499 65.109 250.316 66.2945 250.316 67.7568C250.316 69.2192 251.499 70.4046 252.959 70.4046Z" fill="#716DF2"/>
</g>
<path d="M150 283C150 276.925 154.925 272 161 272H247C253.075 272 258 276.925 258 283V289.696C258 295.771 253.075 300.696 247 300.696H161C154.925 300.696 150 295.771 150 289.696V283Z" fill="#8A80FD"/>
<path d="M180.759 287.207C180.759 288.861 180.449 290.132 179.829 291.021C179.209 291.91 178.323 292.354 177.17 292.354C176.012 292.354 175.124 291.912 174.504 291.028C173.884 290.139 173.574 288.861 173.574 287.193C173.574 285.539 173.884 284.272 174.504 283.392C175.124 282.508 176.017 282.066 177.184 282.066C178.337 282.066 179.221 282.51 179.836 283.399C180.451 284.283 180.759 285.552 180.759 287.207ZM175.475 287.207C175.475 288.346 175.618 289.214 175.905 289.811C176.192 290.408 176.614 290.707 177.17 290.707C178.291 290.707 178.852 289.54 178.852 287.207C178.852 284.873 178.296 283.707 177.184 283.707C176.618 283.707 176.192 284.005 175.905 284.602C175.618 285.195 175.475 286.063 175.475 287.207ZM185.359 284.459C185.583 284.459 185.801 284.493 186.016 284.561L185.804 286.325C185.676 286.279 185.51 286.256 185.305 286.256C184.863 286.256 184.523 286.432 184.286 286.783C184.049 287.129 183.931 287.635 183.931 288.3V292.217H182.112V284.602H183.609L183.814 285.792H183.876C184.076 285.313 184.295 284.971 184.532 284.766C184.769 284.561 185.045 284.459 185.359 284.459ZM188.832 292.354C188.13 292.354 187.576 292.008 187.171 291.315C186.765 290.622 186.562 289.658 186.562 288.423C186.562 287.184 186.761 286.213 187.157 285.511C187.554 284.81 188.101 284.459 188.798 284.459C189.144 284.459 189.443 284.545 189.693 284.718C189.949 284.887 190.183 285.174 190.397 285.58H190.507C190.452 284.887 190.425 284.402 190.425 284.124V281.581H192.243V292.217H190.89L190.582 291.226H190.521C190.133 291.978 189.57 292.354 188.832 292.354ZM189.42 290.816C189.757 290.816 190.003 290.663 190.158 290.358C190.313 290.048 190.397 289.488 190.411 288.676V288.437C190.411 287.553 190.331 286.931 190.172 286.571C190.017 286.211 189.759 286.031 189.399 286.031C189.062 286.031 188.816 286.238 188.661 286.653C188.511 287.063 188.436 287.662 188.436 288.451C188.436 289.239 188.513 289.832 188.668 290.228C188.823 290.62 189.074 290.816 189.42 290.816ZM196.584 292.354C195.632 292.354 194.88 292.017 194.328 291.342C193.781 290.663 193.508 289.704 193.508 288.464C193.508 287.207 193.756 286.225 194.253 285.518C194.75 284.812 195.442 284.459 196.331 284.459C197.16 284.459 197.814 284.762 198.293 285.368C198.771 285.969 199.011 286.815 199.011 287.904V288.875H195.354C195.367 289.554 195.506 290.06 195.771 290.392C196.035 290.72 196.399 290.884 196.864 290.884C197.457 290.884 198.063 290.7 198.683 290.331V291.828C198.099 292.179 197.4 292.354 196.584 292.354ZM196.317 285.86C196.058 285.86 195.843 285.999 195.675 286.277C195.506 286.55 195.408 286.977 195.381 287.555H197.227C197.217 286.999 197.133 286.578 196.974 286.291C196.814 286.004 196.595 285.86 196.317 285.86ZM204.008 292.217V287.678C204.008 287.127 203.942 286.71 203.81 286.427C203.677 286.145 203.463 286.004 203.167 286.004C202.775 286.004 202.488 286.2 202.306 286.591C202.123 286.979 202.032 287.635 202.032 288.56V292.217H200.214V284.602H201.656L201.875 285.58H201.991C202.155 285.229 202.39 284.955 202.695 284.759C203.001 284.559 203.358 284.459 203.769 284.459C204.461 284.459 204.979 284.696 205.32 285.17C205.667 285.644 205.84 286.336 205.84 287.248V292.217H204.008ZM211.042 292.217L210.68 291.178H210.639C210.37 291.625 210.092 291.933 209.805 292.101C209.518 292.27 209.155 292.354 208.718 292.354C208.157 292.354 207.715 292.144 207.392 291.725C207.073 291.306 206.913 290.723 206.913 289.975C206.913 289.173 207.132 288.578 207.569 288.191C208.011 287.799 208.67 287.583 209.545 287.542L210.557 287.501V286.954C210.557 286.243 210.249 285.887 209.634 285.887C209.178 285.887 208.654 286.065 208.062 286.421L207.433 285.163C208.189 284.684 209.012 284.445 209.9 284.445C210.707 284.445 211.32 284.677 211.739 285.142C212.163 285.602 212.375 286.256 212.375 287.104V292.217H211.042ZM209.463 290.932C209.796 290.932 210.06 290.784 210.256 290.488C210.456 290.187 210.557 289.788 210.557 289.292V288.649L209.996 288.676C209.581 288.699 209.276 288.818 209.08 289.032C208.889 289.246 208.793 289.565 208.793 289.989C208.793 290.618 209.016 290.932 209.463 290.932ZM217.092 284.459C217.315 284.459 217.534 284.493 217.748 284.561L217.536 286.325C217.409 286.279 217.242 286.256 217.037 286.256C216.595 286.256 216.256 286.432 216.019 286.783C215.782 287.129 215.663 287.635 215.663 288.3V292.217H213.845V284.602H215.342L215.547 285.792H215.608C215.809 285.313 216.028 284.971 216.265 284.766C216.502 284.561 216.777 284.459 217.092 284.459ZM221.248 284.602H223.135L224.188 288.902C224.292 289.285 224.377 289.82 224.44 290.508H224.481C224.486 290.399 224.507 290.205 224.543 289.927C224.579 289.645 224.609 289.424 224.632 289.264C224.655 289.105 224.969 287.551 225.575 284.602H227.489L225.309 292.764C225.044 293.767 224.693 294.487 224.256 294.924C223.818 295.362 223.235 295.581 222.506 295.581C222.146 295.581 221.825 295.542 221.542 295.464V293.94C221.729 293.995 221.938 294.022 222.171 294.022C222.782 294.022 223.183 293.621 223.374 292.819L223.504 292.34L221.248 284.602ZM232.001 292.217L231.639 291.178H231.598C231.329 291.625 231.051 291.933 230.764 292.101C230.477 292.27 230.114 292.354 229.677 292.354C229.116 292.354 228.674 292.144 228.351 291.725C228.032 291.306 227.872 290.723 227.872 289.975C227.872 289.173 228.091 288.578 228.528 288.191C228.97 287.799 229.629 287.583 230.504 287.542L231.516 287.501V286.954C231.516 286.243 231.208 285.887 230.593 285.887C230.137 285.887 229.613 286.065 229.021 286.421L228.392 285.163C229.148 284.684 229.971 284.445 230.859 284.445C231.666 284.445 232.279 284.677 232.698 285.142C233.122 285.602 233.334 286.256 233.334 287.104V292.217H232.001ZM230.422 290.932C230.755 290.932 231.019 290.784 231.215 290.488C231.415 290.187 231.516 289.788 231.516 289.292V288.649L230.955 288.676C230.54 288.699 230.235 288.818 230.039 289.032C229.848 289.246 229.752 289.565 229.752 289.989C229.752 290.618 229.975 290.932 230.422 290.932ZM236.677 288.998H235.18L234.845 282.223H237.025L236.677 288.998ZM234.79 291.281C234.79 290.925 234.883 290.65 235.07 290.454C235.262 290.258 235.544 290.16 235.918 290.16C236.292 290.16 236.574 290.258 236.766 290.454C236.957 290.645 237.053 290.921 237.053 291.281C237.053 291.636 236.952 291.912 236.752 292.108C236.556 292.304 236.278 292.402 235.918 292.402C235.549 292.402 235.269 292.304 235.077 292.108C234.886 291.908 234.79 291.632 234.79 291.281Z" fill="white"/>
<defs>
<linearGradient id="paint0_linear_51_479" x1="477" y1="-48.7113" x2="-159.555" y2="327.085" gradientUnits="userSpaceOnUse">
<stop offset="0.199014" stop-color="#CAC9F2"/>
<stop offset="0.512424" stop-color="white" stop-opacity="0.468122"/>
<stop offset="0.78334" stop-color="#FEB949" stop-opacity="0.75"/>
</linearGradient>
<clipPath id="clip0_51_479">
<rect width="313" height="138" fill="white" transform="translate(57 16)"/>
</clipPath>
</defs>
</svg>
