<svg width="225" height="195" viewBox="0 0 225 195" fill="none" xmlns="http://www.w3.org/2000/svg">
<g clip-path="url(#clip0_47_427)">
<path d="M59.3001 105.726C57.3288 95.1519 60.4324 83.1218 69.0586 76.7211C68.5697 88.4091 72.2214 99.8937 79.3677 109.143C82.1366 112.7 85.5859 116.367 85.4787 120.878C85.4121 123.684 83.8978 126.298 81.9022 128.268C79.9064 130.238 77.4481 131.658 75.0192 133.056L74.6411 133.645C67.5209 125.596 61.2714 116.3 59.3001 105.726Z" fill="#F0F0F0"/>
<path d="M69.2158 76.8828C65.5916 85.0122 64.6153 94.0794 66.4254 102.797C66.7819 104.68 67.4323 106.496 68.3528 108.176C69.3023 109.784 70.6641 111.108 72.2967 112.01C73.8021 112.882 75.4426 113.599 76.7104 114.822C77.35 115.458 77.8483 116.223 78.1726 117.065C78.4969 117.907 78.6398 118.809 78.5921 119.711C78.5314 121.961 77.6677 124.054 76.7521 126.073C75.7355 128.313 74.6442 130.625 74.7101 133.144C74.7181 133.449 74.2451 133.444 74.2371 133.139C74.1224 128.756 77.2841 125.236 77.9885 121.03C78.3173 119.068 78.0579 116.994 76.6813 115.473C75.4775 114.142 73.7864 113.402 72.2546 112.532C70.649 111.675 69.2772 110.438 68.259 108.927C67.2561 107.299 66.5369 105.512 66.1323 103.642C65.1544 99.4465 64.8408 95.1231 65.2029 90.8301C65.589 85.9283 66.8089 81.1288 68.8098 76.6392C68.9338 76.3614 69.3389 76.6068 69.2158 76.8828L69.2158 76.8828Z" fill="white"/>
<path d="M65.6777 100.024C64.1772 100.13 62.688 99.6978 61.4761 98.8047C60.2642 97.9117 59.4085 96.616 59.0618 95.149C58.9926 94.852 59.45 94.7303 59.5192 95.0278C59.8396 96.3944 60.6368 97.6013 61.767 98.4306C62.8973 99.2599 64.286 99.6569 65.6826 99.55C65.9862 99.5271 65.9795 100.001 65.6777 100.024Z" fill="white"/>
<path d="M71.4753 111.669C73.5122 109.36 74.6061 106.367 74.5389 103.286C74.532 102.981 75.005 102.986 75.0119 103.291C75.0759 106.497 73.9312 109.61 71.8062 112.008C71.6035 112.236 71.2736 111.896 71.4753 111.669V111.669Z" fill="white"/>
<path d="M66.1433 86.2227C66.7324 86.303 67.3321 86.2354 67.8887 86.026C68.4453 85.8165 68.9412 85.4718 69.332 85.0228C69.5318 84.7919 69.8614 85.1322 69.663 85.3615C69.2289 85.8556 68.6807 86.2356 68.0663 86.4684C67.4519 86.7012 66.79 86.7796 66.1383 86.6968C66.0763 86.6941 66.0175 86.6679 65.974 86.6234C65.9306 86.5789 65.9056 86.5195 65.9043 86.4573C65.9053 86.3945 65.9309 86.3347 65.9757 86.2907C66.0204 86.2468 66.0807 86.2224 66.1433 86.2227H66.1433Z" fill="white"/>
<path d="M104.335 85.4677C104.214 85.6154 104.094 85.7631 103.974 85.9147C102.363 87.9089 100.916 90.0311 99.6477 92.2602C99.5469 92.431 99.4473 92.6056 99.3516 92.7789C96.353 98.182 94.3813 104.096 93.5367 110.221C93.2029 112.658 93.0546 115.117 93.093 117.577C93.1463 120.975 93.4738 124.654 92.4348 127.778C92.33 128.106 92.2052 128.426 92.0609 128.738L75.388 134.062C75.344 134.055 75.3011 134.052 75.257 134.045L74.601 134.288C74.5901 134.161 74.5816 134.03 74.5708 133.903C74.5642 133.829 74.5613 133.755 74.5548 133.681C74.5515 133.632 74.5485 133.582 74.5428 133.538C74.5416 133.522 74.5407 133.505 74.5408 133.492C74.5351 133.448 74.5345 133.406 74.53 133.366C74.4804 132.63 74.4345 131.893 74.3964 131.153C74.3952 131.149 74.3952 131.149 74.3977 131.144C74.1115 125.512 74.292 119.806 75.3309 114.308C75.3622 114.143 75.3921 113.974 75.431 113.806C75.913 111.331 76.5961 108.899 77.4734 106.535C77.9579 105.242 78.5074 103.975 79.1198 102.738C80.7082 99.5445 82.7879 96.6213 85.2827 94.0757C90.2567 89.0016 96.7944 85.5785 103.8 85.4707C103.979 85.468 104.155 85.4665 104.335 85.4677Z" fill="#F0F0F0"/>
<path d="M104.365 85.6917C96.5879 89.9957 90.3616 96.6462 86.5704 104.699C85.7235 106.418 85.1523 108.26 84.8778 110.157C84.6699 112.014 84.962 113.893 85.7236 115.598C86.4018 117.203 87.281 118.765 87.5583 120.507C87.687 121.401 87.6258 122.311 87.3787 123.18C87.1315 124.048 86.7041 124.854 86.1243 125.545C84.7243 127.305 82.777 128.456 80.8336 129.515C78.6758 130.69 76.416 131.877 74.9553 133.929C74.7784 134.177 74.4039 133.887 74.5807 133.639C77.122 130.07 81.761 129.168 84.8499 126.235C86.2912 124.866 87.3298 123.054 87.1445 121.009C86.9824 119.22 86.0772 117.608 85.3764 115.989C84.6091 114.337 84.2573 112.521 84.3516 110.7C84.5289 108.795 85.0284 106.934 85.8286 105.197C87.568 101.257 89.9147 97.6157 92.7826 94.4064C96.0355 90.7256 99.8926 87.6296 104.187 85.2523C104.453 85.1053 104.629 85.5457 104.365 85.6917Z" fill="white"/>
<path d="M87.6389 102.034C86.3772 101.213 85.4478 99.9692 85.0166 98.5249C84.5854 97.0806 84.6805 95.5297 85.2849 94.1491C85.4082 93.8702 85.8464 94.0491 85.723 94.3284C85.1578 95.6129 85.0694 97.0576 85.4736 98.4017C85.8779 99.7458 86.7483 100.901 87.9276 101.658C88.1837 101.823 87.8935 102.198 87.6388 102.034H87.6389Z" fill="white"/>
<path d="M85.2727 114.83C88.2859 114.216 90.9574 112.486 92.7545 109.985C92.9324 109.737 93.3069 110.027 93.1293 110.275C91.2542 112.873 88.4705 114.668 85.3334 115.3C85.0344 115.36 84.9753 114.89 85.2727 114.83V114.83Z" fill="white"/>
<path d="M96.3012 91.2951C96.7233 91.7146 97.2428 92.0226 97.813 92.1912C98.3832 92.3598 98.9863 92.3839 99.568 92.2612C99.8662 92.1974 99.925 92.668 99.6288 92.7314C98.9854 92.8639 98.3194 92.8365 97.689 92.6516C97.0587 92.4667 96.483 92.1299 96.0125 91.6706C95.9645 91.631 95.9333 91.5746 95.9254 91.5129C95.9174 91.4511 95.9332 91.3886 95.9695 91.3381C96.008 91.2886 96.0644 91.2563 96.1265 91.2482C96.1886 91.2401 96.2514 91.257 96.3012 91.295V91.2951Z" fill="white"/>
<path d="M130.524 27.6434C130.58 27.8895 130.617 28.1396 130.633 28.3915L150.182 39.6944L154.933 36.9529L159.999 43.5992L152.058 49.272C151.416 49.7302 150.644 49.9676 149.856 49.9483C149.069 49.9291 148.308 49.6543 147.69 49.1653L127.532 33.2266C126.622 33.5642 125.632 33.6161 124.692 33.3755C123.752 33.1349 122.907 32.6133 122.271 31.8799C121.634 31.1465 121.235 30.2362 121.127 29.27C121.019 28.3038 121.207 27.3276 121.666 26.4711C122.125 25.6146 122.833 24.9185 123.696 24.4753C124.56 24.0321 125.537 23.8629 126.499 23.9902C127.461 24.1175 128.361 24.5352 129.08 25.1878C129.799 25.8404 130.303 26.6969 130.524 27.6434V27.6434Z" fill="#FFB6B6"/>
<path d="M150.453 38.4465C150.515 38.1582 150.639 37.8867 150.815 37.6505C150.991 37.4143 151.216 37.219 151.475 37.0779L160.5 32.1494C161.702 31.2402 163.214 30.8459 164.706 31.0529C166.197 31.2598 167.546 32.0512 168.456 33.2534C169.367 34.4556 169.764 35.9705 169.561 37.466C169.359 38.9614 168.573 40.3153 167.375 41.2307L160.142 48.5957C159.936 48.8059 159.686 48.969 159.411 49.0739C159.136 49.1789 158.842 49.2232 158.548 49.2038C158.255 49.1845 157.969 49.1019 157.71 48.9617C157.451 48.8216 157.225 48.6272 157.048 48.3917L150.82 40.1158C150.643 39.8804 150.518 39.6094 150.455 39.3213C150.392 39.0332 150.391 38.7348 150.453 38.4465Z" fill="#3F3D56"/>
<path d="M166.577 9.7938C167.876 5.64603 170.829 1.84185 174.912 0.439676C178.996 -0.962492 184.977 1.17347 188.047 4.24031C193.663 9.85017 195.034 29.1221 191.175 35.2122C190.408 35.1715 187.759 35.1414 186.982 35.1122L185.884 31.4416V35.0761C179.821 34.8883 173.509 35.0058 167.193 35.1274C166.627 30.8156 165.278 13.9416 166.577 9.7938Z" fill="#2F2E41"/>
<path d="M164.839 183.895H159.31L156.679 162.517L164.841 162.517L164.839 183.895Z" fill="#FFB6B6"/>
<path d="M213.249 180.449L207.898 181.847L199.972 161.825L207.869 159.762L213.249 180.449Z" fill="#FFB6B6"/>
<path d="M182.774 52.5921L184.027 55.8573L183.777 59.1224L159.254 67.6355L160.471 53.3455L163.227 50.08L182.774 52.5921Z" fill="#FFB6B6"/>
<path d="M175.02 23.2082C179.858 23.2082 183.779 19.2779 183.779 14.4297C183.779 9.58145 179.858 5.65118 175.02 5.65118C170.183 5.65118 166.262 9.58145 166.262 14.4297C166.262 19.2779 170.183 23.2082 175.02 23.2082Z" fill="#FFB7B7"/>
<path d="M169.002 2.99852C170.685 1.97022 172.613 1.41398 174.584 1.38794C176.554 1.3619 178.496 1.86701 180.206 2.85049C181.915 3.83396 183.329 5.25966 184.301 6.97851C185.272 8.69736 185.765 10.6462 185.728 12.6213C180.954 13.8444 175.866 14.3559 170.474 12.9159L169.242 9.89271L168.515 12.9181C166.865 14.0811 165.273 14.079 163.739 12.9119C163.674 10.9423 164.126 8.99015 165.049 7.2505C165.973 5.51086 167.336 4.04468 169.002 2.99852Z" fill="#2F2E41"/>
<path d="M167.313 194.419H163.389L162.689 190.706L160.895 194.419H150.488C149.989 194.419 149.503 194.26 149.101 193.963C148.699 193.667 148.402 193.25 148.254 192.772C148.105 192.295 148.113 191.783 148.276 191.31C148.439 190.837 148.748 190.429 149.158 190.145L157.469 184.392V180.638L166.211 181.161L167.313 194.419Z" fill="#2F2E41"/>
<path d="M218.776 189.88L214.979 190.872L213.367 187.456L212.565 191.503L202.494 194.134C202.012 194.26 201.501 194.228 201.038 194.043C200.575 193.858 200.182 193.529 199.919 193.105C199.655 192.681 199.533 192.183 199.572 191.684C199.61 191.186 199.807 190.713 200.132 190.334L206.727 182.666L205.782 179.034L214.373 177.33L218.776 189.88Z" fill="#2F2E41"/>
<path d="M212.57 167.004L196.361 133.613L191.272 92.9724C194.781 86.4419 188.265 73.1538 188.265 73.1538V67.5746L163.025 72.347V72.347C157.862 86.4593 155.359 101.41 155.642 116.438L156.659 170.461H156.34C155.811 170.461 155.303 170.672 154.928 171.047C154.554 171.422 154.344 171.931 154.344 172.462C154.344 172.993 154.554 173.501 154.928 173.877C155.303 174.252 155.811 174.463 156.34 174.463H166.321C166.85 174.463 167.358 174.252 167.732 173.877C168.107 173.501 168.317 172.993 168.317 172.462C168.317 171.931 168.107 171.422 167.732 171.047C167.358 170.672 166.85 170.461 166.321 170.461H166.064L173.229 101.734L181.56 135.649L201.694 166.876C201.18 166.916 200.702 167.154 200.36 167.54C200.018 167.926 199.838 168.43 199.859 168.946C199.879 169.462 200.099 169.949 200.471 170.307C200.843 170.664 201.338 170.863 201.853 170.861H211.834C212.299 170.862 212.748 170.7 213.106 170.404C213.464 170.107 213.708 169.695 213.795 169.238C213.882 168.781 213.808 168.308 213.584 167.9C213.361 167.493 213.002 167.176 212.57 167.004H212.57Z" fill="#2F2E41"/>
<path d="M190.547 76.5742H190.547C190.464 76.2477 190.28 75.9559 190.022 75.7407C189.763 75.5254 189.443 75.3977 189.108 75.3759C188.775 71.5636 186.577 47.1142 186.493 46.3969L186.49 46.3666L185.853 32.7386C185.83 32.2437 185.626 31.7746 185.28 31.421C184.933 31.0674 184.469 30.8541 183.976 30.8218L180.614 30.6015C180.568 30.6 180.524 30.5805 180.492 30.5473C180.46 30.514 180.442 30.4696 180.442 30.4234C180.442 30.0512 180.369 29.6828 180.227 29.339C180.085 28.9952 179.877 28.6828 179.614 28.4197C179.352 28.1566 179.04 27.9479 178.697 27.8055C178.354 27.6631 177.986 27.5898 177.615 27.5898H167.661C167.017 27.59 166.394 27.8261 165.911 28.2537C165.428 28.6813 165.117 29.271 165.036 29.9121C165.032 29.9563 165.011 29.9971 164.978 30.0265C164.945 30.0559 164.902 30.0717 164.857 30.0706L164.856 30.0706C163.725 30.0473 162.623 30.431 161.75 31.1523C160.878 31.8736 160.292 32.8845 160.099 34.0018C158.738 41.937 156.011 59.947 157.359 69.9596C157.829 73.4451 157.615 78.6873 157.438 81.6037C157.42 81.8855 157.458 82.168 157.55 82.4351C157.641 82.7022 157.785 82.9485 157.971 83.16C157.574 83.2748 157.237 83.5394 157.031 83.8983C156.825 84.2572 156.766 84.6822 156.867 85.0838H156.867C156.97 85.4954 157.233 85.849 157.596 86.0667C157.96 86.2843 158.395 86.3483 158.806 86.2446L189.389 78.5175C189.8 78.4137 190.152 78.1507 190.37 77.7863C190.587 77.4218 190.651 76.9858 190.547 76.5742Z" fill="#3F3D56"/>
<path d="M140.001 133.868C139.995 132.973 139.673 132.109 139.093 131.429C138.512 130.749 137.71 130.298 136.829 130.154L82.6061 121.23C82.0861 121.144 81.5539 121.167 81.0437 121.3L68.3363 124.593L61.0452 126.484L47.5897 129.971C46.7775 130.182 46.0582 130.658 45.5447 131.323C45.0311 131.988 44.7524 132.805 44.7522 133.647V190.593C44.7562 191.461 45.0555 192.302 45.6007 192.976C46.1459 193.651 46.9043 194.119 47.7507 194.303L102.98 193.677C103.24 193.732 103.504 193.76 103.769 193.759C104.156 193.76 104.54 193.701 104.909 193.585L137.722 194.403C138.496 194.161 139.172 193.675 139.649 193.017C140.126 192.36 140.379 191.566 140.37 190.753L140.001 133.868Z" fill="white"/>
<path d="M140.001 133.868C139.995 132.973 139.673 132.109 139.093 131.429C138.512 130.749 137.71 130.298 136.829 130.154L82.6061 121.23C82.0861 121.144 81.5539 121.167 81.0437 121.3L68.3363 124.593L61.0452 126.484L47.5897 129.971C46.7775 130.182 46.0582 130.658 45.5447 131.323C45.0311 131.988 44.7524 132.805 44.7522 133.647V190.593C44.7562 191.461 45.0555 192.302 45.6007 192.976C46.1459 193.651 46.9043 194.119 47.7507 194.303L102.98 193.677C103.24 193.732 103.504 193.76 103.769 193.759C104.156 193.76 104.54 193.701 104.909 193.585L137.722 194.403C138.496 194.161 139.172 193.675 139.649 193.017C140.126 192.36 140.379 191.566 140.37 190.753L140.001 133.868ZM137.438 193.498L104.625 194.281C104.157 194.427 103.659 194.451 103.179 194.35L47.9464 193.377C47.3118 193.238 46.7433 192.887 46.3347 192.38C45.9262 191.874 45.702 191.244 45.6991 190.593V133.647C45.6995 133.064 45.8783 132.495 46.2112 132.017C46.5442 131.539 47.0154 131.175 47.5613 130.973C47.648 130.941 47.7366 130.913 47.8265 130.891L62.0615 127.203L70.4795 125.02L81.2804 122.22C81.512 122.158 81.7508 122.127 81.9906 122.128C82.145 122.128 82.2991 122.141 82.4514 122.166L136.674 131.09C137.11 131.162 137.524 131.335 137.882 131.594C138.241 131.854 138.534 132.194 138.738 132.587C138.943 132.985 139.051 133.426 139.054 133.874L139.423 190.759C139.43 191.369 139.241 191.965 138.883 192.458C138.525 192.952 138.019 193.316 137.438 193.498Z" fill="#CCCCCC"/>
<path d="M138.738 132.587C138.701 132.611 138.661 132.629 138.618 132.641L122.669 136.962L117.704 138.306L103.583 142.131C103.543 142.141 103.501 142.146 103.46 142.147C103.431 142.146 103.403 142.144 103.375 142.14L46.4345 131.736L46.2451 131.701C46.1217 131.678 46.0126 131.607 45.9415 131.503C45.8704 131.399 45.8431 131.272 45.8656 131.148C45.8881 131.024 45.9586 130.914 46.0617 130.842C46.1647 130.771 46.292 130.743 46.4156 130.765L47.5613 130.973L103.441 141.185L115.612 137.889L122.42 136.044L138.123 131.79L138.372 131.723C138.48 131.695 138.594 131.705 138.695 131.752C138.796 131.8 138.877 131.881 138.924 131.983C138.937 132.007 138.946 132.032 138.953 132.058C138.979 132.158 138.972 132.263 138.933 132.358C138.895 132.454 138.826 132.534 138.738 132.587Z" fill="#CCCCCC"/>
<path d="M103.933 193.87C103.674 193.87 103.462 193.66 103.46 195L102.987 143.277C102.984 141.415 103.194 141.2 103.456 141.198H103.46C103.72 141.198 103.931 141.407 103.933 143.269L104.407 194.991C104.409 193.653 104.199 193.867 103.938 193.87H103.933Z" fill="#CCCCCC"/>
<path d="M122.804 194.47L117.704 194.524L115.612 137.889L62.2162 127.24C62.1638 127.231 62.1122 127.219 62.0615 127.203C61.6514 127.085 61.293 126.832 61.0452 126.484L68.3363 124.593L70.4794 125.02L121.145 135.121C121.411 135.173 121.663 135.283 121.883 135.443C122.103 135.602 122.286 135.807 122.42 136.044C122.578 136.32 122.8 194.141 122.804 194.47Z" fill="#CCCCCC"/>
<path d="M163.647 30.2067C163.643 29.5322 163.4 28.8811 162.963 28.3687C162.525 27.8563 161.92 27.5159 161.256 27.4076L120.391 20.6819C119.999 20.6169 119.598 20.6348 119.214 20.7344L109.637 23.2163L104.142 24.642L94.0011 27.2694C93.3889 27.4287 92.8468 27.7872 92.4598 28.2886C92.0728 28.7899 91.8627 29.4059 91.8625 30.0398V63.6088C91.8656 64.2631 92.0912 64.8967 92.502 65.4052C92.9129 65.9136 93.4845 66.2665 94.1224 66.4054L135.746 75.2817C135.942 75.3238 136.141 75.3445 136.341 75.3437C136.632 75.3442 136.922 75.3 137.2 75.2125L161.929 67.3853C162.513 67.2028 163.022 66.8365 163.382 66.3409C163.742 65.8453 163.932 65.2467 163.925 64.634L163.647 30.2067Z" fill="white"/>
<path d="M119.929 23.1471C119.899 23.147 119.869 23.1509 119.84 23.1585L94.6274 29.6935C94.551 29.7133 94.4832 29.7581 94.4349 29.8207C94.3866 29.8832 94.3604 29.9601 94.3604 30.0393V63.6078C94.3606 63.6895 94.3888 63.7687 94.4401 63.8323C94.4914 63.8958 94.5628 63.9399 94.6425 63.9572L136.266 72.8334C136.327 72.8461 136.389 72.843 136.448 72.8245L161.178 64.9975C161.251 64.9747 161.315 64.929 161.36 64.8671C161.404 64.8051 161.428 64.7304 161.427 64.6539L161.15 30.2267C161.149 30.1425 161.119 30.0612 161.064 29.9972C161.01 29.9332 160.934 29.8907 160.851 29.8772L119.986 23.1517C119.967 23.1487 119.948 23.1471 119.929 23.1471Z" fill="#6C63FF"/>
<path d="M163.647 30.2067C163.643 29.5322 163.4 28.8811 162.963 28.3687C162.525 27.8563 161.92 27.5159 161.256 27.4076L120.391 20.6819C119.999 20.6169 119.598 20.6348 119.214 20.7344L109.637 23.2163L104.142 24.642L94.0011 27.2694C93.3889 27.4287 92.8468 27.7872 92.4598 28.2886C92.0728 28.7899 91.8627 29.4059 91.8625 30.0398V63.6088C91.8656 64.2631 92.0912 64.8967 92.502 65.4052C92.9129 65.9136 93.4845 66.2665 94.1224 66.4054L135.746 75.2817C135.942 75.3238 136.141 75.3445 136.341 75.3437C136.632 75.3442 136.922 75.3 137.2 75.2125L161.929 67.3853C162.513 67.2028 163.022 66.8365 163.382 66.3409C163.742 65.8453 163.932 65.2467 163.925 64.634L163.647 30.2067ZM161.715 66.7034L136.986 74.5306C136.633 74.6408 136.258 74.6588 135.896 74.5831L94.2699 65.7069C93.7916 65.6023 93.3631 65.3375 93.0552 64.9561C92.7473 64.5747 92.5783 64.0994 92.5762 63.6088V30.0398C92.5765 29.6004 92.7112 29.1717 92.9622 28.8115C93.2131 28.4513 93.5682 28.1768 93.9797 28.0252C94.045 28.0006 94.1117 27.9799 94.1795 27.9632L104.908 25.1833L111.252 23.5382L119.392 21.4282C119.567 21.3815 119.747 21.3582 119.927 21.359C120.044 21.359 120.16 21.3686 120.275 21.3876L161.14 28.1134C161.469 28.1675 161.78 28.2975 162.05 28.4933C162.32 28.689 162.541 28.945 162.695 29.2411C162.85 29.5413 162.931 29.8737 162.933 30.2114L163.212 64.6388C163.217 65.0984 163.074 65.5474 162.805 65.9193C162.535 66.2912 162.153 66.5662 161.715 66.7034V66.7034Z" fill="#3F3D56"/>
<path d="M162.695 29.2411C162.668 29.2594 162.637 29.273 162.605 29.2816L150.585 32.5384L146.843 33.5516L136.201 36.4341C136.17 36.4416 136.139 36.4456 136.108 36.446C136.086 36.4456 136.065 36.444 136.044 36.4412L93.1304 28.5997L92.9877 28.5735C92.8946 28.5561 92.8123 28.5024 92.7586 28.4243C92.705 28.3461 92.6844 28.2499 92.7014 28.1566C92.7184 28.0632 92.7715 27.9805 92.8493 27.9263C92.927 27.8722 93.023 27.8512 93.1161 27.8678L93.9796 28.0251L136.094 35.7212L145.266 33.2369L150.397 31.8469L162.232 28.6402L162.419 28.5902C162.501 28.5687 162.587 28.5765 162.663 28.6123C162.739 28.648 162.8 28.7094 162.836 28.7857C162.845 28.8039 162.852 28.8231 162.857 28.8429C162.877 28.9179 162.872 28.9972 162.842 29.069C162.813 29.1408 162.762 29.2012 162.695 29.2411Z" fill="#3F3D56"/>
<path d="M136.465 75.4271C136.371 75.4271 136.28 75.3899 136.213 75.3235C136.147 75.2572 136.109 75.167 136.108 75.0727L135.751 36.0917C135.75 35.9968 135.787 35.9055 135.853 35.8379C135.92 35.7702 136.01 35.7317 136.105 35.7308H136.108C136.202 35.7308 136.292 35.768 136.359 35.8344C136.426 35.9007 136.464 35.9909 136.465 36.0851L136.821 75.0662C136.822 75.1611 136.785 75.2524 136.719 75.32C136.653 75.3877 136.562 75.4262 136.468 75.4271H136.465Z" fill="#3F3D56"/>
<path d="M150.585 70.685L146.843 71.6983L145.266 33.2369L105.024 25.2118C104.985 25.2048 104.946 25.1953 104.908 25.1832C104.599 25.095 104.329 24.9042 104.142 24.642L109.637 23.2163L111.252 23.5382L149.436 31.1508C149.637 31.1905 149.827 31.2733 149.993 31.3935C150.159 31.5137 150.297 31.6684 150.397 31.847C150.516 32.0544 150.583 70.4371 150.585 70.685Z" fill="#3F3D56"/>
<path d="M148.909 48.7559C149.1 48.92 149.278 49.0989 149.442 49.291L171.857 46.6672L174.037 41.6252L182.06 43.9282L179.066 53.2299C178.824 53.9814 178.345 54.6339 177.702 55.0896C177.058 55.5452 176.285 55.7794 175.497 55.757L149.832 55.0257C149.303 55.8407 148.539 56.475 147.642 56.8441C146.745 57.2133 145.756 57.2999 144.809 57.0924C143.861 56.8849 142.999 56.3931 142.337 55.6825C141.675 54.9719 141.244 54.0761 141.102 53.1143C140.961 52.1524 141.115 51.1702 141.544 50.2982C141.972 49.4261 142.656 48.7056 143.504 48.2325C144.351 47.7593 145.322 47.556 146.288 47.6495C147.253 47.743 148.167 48.1289 148.909 48.7559Z" fill="#FFB6B6"/>
<path d="M171.332 45.5035C171.21 45.2351 171.147 44.9434 171.148 44.6485C171.149 44.3536 171.213 44.0623 171.337 43.7945L175.643 34.4414C176.067 32.9931 177.045 31.7721 178.365 31.0461C179.685 30.32 181.239 30.1483 182.685 30.5684C184.131 30.9886 185.352 31.9664 186.08 33.2874C186.808 34.6084 186.983 36.1648 186.568 37.6154L185.15 47.8516C185.109 48.1438 185.006 48.4237 184.848 48.6724C184.69 48.9211 184.48 49.1328 184.233 49.2929C183.986 49.453 183.707 49.5578 183.416 49.6002C183.125 49.6427 182.828 49.6217 182.545 49.5388L172.62 46.6236C172.338 46.5408 172.076 46.3978 171.854 46.2045C171.632 46.0112 171.454 45.7721 171.332 45.5035Z" fill="#3F3D56"/>
<path d="M246.525 194.886H0.475453C0.349616 194.886 0.229054 194.836 0.140202 194.746C0.0513506 194.657 0.00146484 194.536 0.00146484 194.41C0.00146484 194.284 0.0513506 194.163 0.140202 194.074C0.229054 193.984 0.349616 193.934 0.475453 193.934H246.525C246.651 193.934 246.772 193.984 246.861 194.073C246.95 194.162 247 194.284 247 194.41C247 194.536 246.95 194.658 246.861 194.747C246.772 194.836 246.651 194.886 246.525 194.886Z" fill="#CACACA"/>
<path d="M47.9537 144.261C55.8498 144.261 62.2509 137.846 62.2509 129.932C62.2509 122.018 55.8498 115.602 47.9537 115.602C40.0576 115.602 33.6565 122.018 33.6565 129.932C33.6565 137.846 40.0576 144.261 47.9537 144.261Z" fill="#6C63FF"/>
<path d="M46.0034 137.39C45.7565 137.39 45.513 137.332 45.2922 137.221C45.0714 137.111 44.8793 136.95 44.7312 136.752L40.8307 131.539C40.5777 131.201 40.469 130.776 40.5287 130.358C40.5884 129.939 40.8114 129.562 41.1489 129.308C41.4863 129.054 41.9105 128.945 42.328 129.005C42.7455 129.065 43.1223 129.289 43.3753 129.627L45.9272 133.037L52.4812 123.183C52.5968 123.009 52.7456 122.858 52.9192 122.741C53.0928 122.624 53.2878 122.542 53.4929 122.501C53.6981 122.459 53.9094 122.459 54.1147 122.5C54.32 122.54 54.5153 122.621 54.6895 122.737C54.8636 122.854 55.0131 123.003 55.1294 123.178C55.2457 123.352 55.3265 123.548 55.3673 123.753C55.408 123.959 55.4078 124.171 55.3667 124.376C55.3256 124.582 55.2444 124.778 55.1278 124.952L47.3268 136.68C47.1857 136.892 46.9959 137.067 46.7733 137.19C46.5508 137.314 46.3019 137.382 46.0476 137.389C46.0329 137.389 46.0182 137.39 46.0034 137.39Z" fill="white"/>
<path d="M108.831 53.8195C108.786 53.8194 108.742 53.8145 108.698 53.8047L96.3221 51.0037C96.1673 50.9684 96.0328 50.8731 95.9481 50.7386C95.8634 50.6041 95.8355 50.4414 95.8704 50.2862C95.9053 50.131 96.0003 49.9961 96.1344 49.911C96.2685 49.826 96.4308 49.7977 96.5856 49.8325L108.962 52.6335C109.106 52.6661 109.232 52.7505 109.318 52.8708C109.403 52.991 109.442 53.1386 109.425 53.2854C109.409 53.4321 109.339 53.5677 109.23 53.6663C109.12 53.7648 108.978 53.8193 108.831 53.8195Z" fill="white"/>
<path d="M61.1989 166.554C61.1553 166.563 61.1109 166.568 61.0665 166.567L48.3802 166.353C48.2216 166.35 48.0707 166.284 47.9605 166.169C47.8503 166.055 47.7899 165.902 47.7926 165.743C47.7952 165.584 47.8607 165.432 47.9746 165.321C48.0885 165.211 48.2415 165.15 48.4001 165.152L61.0864 165.366C61.2336 165.369 61.3748 165.426 61.483 165.526C61.5911 165.626 61.6586 165.763 61.6725 165.91C61.6864 166.057 61.6458 166.204 61.5584 166.323C61.4711 166.442 61.3431 166.524 61.1989 166.554Z" fill="#E6E6E6"/>
<path d="M65.5905 173.357C65.547 173.366 65.5026 173.37 65.4581 173.369L52.7718 173.155C52.6132 173.152 52.4623 173.086 52.3521 172.972C52.2419 172.857 52.1815 172.704 52.1842 172.545C52.1868 172.386 52.2523 172.235 52.3662 172.124C52.4801 172.013 52.6331 171.952 52.7917 171.955L65.478 172.169C65.6253 172.171 65.7665 172.228 65.8746 172.328C65.9827 172.429 66.0502 172.565 66.0641 172.712C66.078 172.859 66.0374 173.006 65.9501 173.125C65.8627 173.244 65.7347 173.327 65.5905 173.357Z" fill="#E6E6E6"/>
</g>
<defs>
<clipPath id="clip0_47_427">
<rect width="247" height="195" fill="white"/>
</clipPath>
</defs>
</svg>
