<svg width="54" height="54" viewBox="0 0 54 54" fill="none" xmlns="http://www.w3.org/2000/svg">
<path d="M40.5 6.75H13.5C11.7098 6.75 9.9929 7.46116 8.72703 8.72703C7.46116 9.9929 6.75 11.7098 6.75 13.5V40.5C6.75 42.2902 7.46116 44.0071 8.72703 45.273C9.9929 46.5388 11.7098 47.25 13.5 47.25H40.5C42.2902 47.25 44.0071 46.5388 45.273 45.273C46.5388 44.0071 47.25 42.2902 47.25 40.5V13.5C47.25 11.7098 46.5388 9.9929 45.273 8.72703C44.0071 7.46116 42.2902 6.75 40.5 6.75ZM13.5 11.25H40.5C41.0967 11.25 41.669 11.4871 42.091 11.909C42.5129 12.331 42.75 12.9033 42.75 13.5V32.31L35.55 26.1675C34.4344 25.2496 33.0347 24.7477 31.59 24.7477C30.1453 24.7477 28.7456 25.2496 27.63 26.1675L11.25 39.825V13.5C11.25 12.9033 11.4871 12.331 11.909 11.909C12.331 11.4871 12.9033 11.25 13.5 11.25ZM40.5 42.75H14.76L30.51 29.61C30.8126 29.3853 31.1794 29.264 31.5562 29.264C31.9331 29.264 32.2999 29.3853 32.6025 29.61L42.75 38.25V40.5C42.75 41.0967 42.5129 41.669 42.091 42.091C41.669 42.5129 41.0967 42.75 40.5 42.75Z" fill="#606060"/>
<path d="M18 22.5C19.864 22.5 21.375 20.989 21.375 19.125C21.375 17.261 19.864 15.75 18 15.75C16.136 15.75 14.625 17.261 14.625 19.125C14.625 20.989 16.136 22.5 18 22.5Z" fill="#606060"/>
</svg>
