<svg width="599" height="314" viewBox="0 0 599 314" fill="none" xmlns="http://www.w3.org/2000/svg">
<path d="M0 0L3.24551 29.4507C3.5928 32.6021 4.19355 35.7204 5.04191 38.7752L6.21511 42.9998C7.50845 47.657 9.36918 52.1377 11.7555 56.341L13.0812 58.6761C23.2362 76.5637 42.2191 87.6155 62.7883 87.6155V87.6155H69.695H75.9738H87.9036H98.5776H117.414H167.017H201.55H243.618H285.687H322.732H353.498H379.869H412.519H442.657H468.4H493.516H504.19H524.282H530.888C553.368 87.6155 573.894 74.8415 583.822 54.6733L584.559 53.1774L589.35 42.7102C591.173 38.7276 592.547 34.5544 593.447 30.2678L599 3.79839V314H0V0Z" fill="#FEB949" fill-opacity="0.2"/>
</svg>
