<svg width="313" height="138" viewBox="0 0 313 138" fill="none" xmlns="http://www.w3.org/2000/svg">
<g clip-path="url(#clip0_44_345)">
<path d="M93.1183 113.625C92.0422 122.071 88.0853 129.799 83.8641 137.243C83.7245 137.497 83.5809 137.747 83.4338 138H39.5609C38.6736 137.769 37.7977 137.516 36.9255 137.243C31.9702 135.732 27.292 133.426 23.0727 130.416C6.93187 118.765 0.720884 96.7508 3.52625 77.0246C5.27064 64.769 10.6395 52.2562 21.0942 45.6555C26.6142 42.1642 33.7048 41.0294 40.0592 42.3269C40.2255 42.3571 40.3916 42.3949 40.5614 42.429C46.0285 43.6621 50.899 46.726 53.6705 51.6623C58.6542 60.5325 55.6866 71.5209 53.2363 81.3935C50.7934 91.266 49.468 103.083 56.5588 110.364C54.2178 103.461 56.5286 95.2264 62.1203 90.5587C66.3452 87.0371 72.2277 85.717 77.5928 86.8101C78.1063 86.9198 78.6123 87.0447 79.1106 87.196C80.3151 87.5494 81.4764 88.0365 82.5729 88.6485C90.9358 93.3276 94.3227 104.104 93.1183 113.625Z" fill="#CCCCCC"/>
<path d="M67.1042 137.243C68.3199 137.527 69.5394 137.777 70.7665 138H64.1328C63.2643 137.765 62.3996 137.516 61.5427 137.243C59.6586 136.653 57.8035 135.976 55.9774 135.212C48.6527 132.133 41.9056 127.511 36.8009 121.36C34.3044 118.381 32.2658 115.044 30.7523 111.461C29.1113 107.412 28.0683 103.144 27.6564 98.7934C26.7313 89.8665 27.6752 80.6937 29.4384 71.9256C31.258 62.838 34.1952 54.0115 38.1829 45.648C38.6624 44.6456 39.1582 43.6495 39.6704 42.6597C39.7057 42.5783 39.759 42.5059 39.8264 42.4482C39.8938 42.3905 39.9734 42.349 40.0592 42.3269C40.2335 42.293 40.4141 42.3297 40.5614 42.429C40.7383 42.5306 40.8694 42.6964 40.9277 42.8921C40.986 43.0878 40.9671 43.2984 40.8748 43.4805C36.7634 51.5132 33.6468 60.0189 31.5943 68.8088C29.5857 77.3839 28.4455 86.3562 28.8343 95.1735C29.2043 103.412 31.3528 111.514 36.227 118.251C40.6785 124.402 46.8252 129.251 53.6252 132.553C57.9292 134.616 62.4504 136.189 67.1042 137.243V137.243Z" fill="white"/>
<path d="M81.6632 138H79.7073C79.4883 137.75 79.2768 137.497 79.0693 137.244C74.6144 131.821 71.5964 125.36 70.2946 118.459C68.7136 109.847 69.9435 100.954 73.8021 93.0969C74.8787 90.8937 76.1472 88.79 77.5929 86.8102C78.1063 86.9199 78.6124 87.0447 79.1107 87.196C75.3081 92.2434 72.7504 98.12 71.6463 104.346C70.6613 110.181 70.9888 116.161 72.6048 121.853C74.2208 127.544 77.0847 132.802 80.9873 137.244C81.2061 137.497 81.4327 137.75 81.6632 138Z" fill="white"/>
<path d="M257.849 131.567C258.133 133.796 259.177 135.836 260.292 137.8C260.328 137.867 260.366 137.933 260.405 138H271.984C272.218 137.939 272.449 137.872 272.679 137.8C273.987 137.401 275.222 136.793 276.335 135.998C280.595 132.924 282.235 127.114 281.494 121.907C281.034 118.673 279.617 115.371 276.858 113.629C275.359 112.714 273.572 112.401 271.852 112.75C271.809 112.758 271.765 112.768 271.72 112.777C271.004 112.916 270.326 113.204 269.73 113.624C269.133 114.044 268.633 114.586 268.26 115.214C266.945 117.555 267.728 120.455 268.375 123.06C269.019 125.666 269.369 128.785 267.498 130.706C267.772 129.903 267.828 129.04 267.659 128.208C267.491 127.376 267.104 126.603 266.539 125.97C265.973 125.337 265.25 124.866 264.443 124.606C263.636 124.346 262.774 124.306 261.947 124.49C261.811 124.519 261.678 124.552 261.546 124.592C261.228 124.685 260.922 124.814 260.632 124.975C258.425 126.21 257.531 129.054 257.849 131.567Z" fill="#F2F2F2"/>
<path d="M264.715 137.8C264.394 137.875 264.072 137.941 263.748 138H265.499C265.728 137.938 265.956 137.872 266.182 137.8C266.68 137.645 267.169 137.466 267.651 137.264C269.606 136.469 271.342 135.215 272.712 133.609C273.371 132.822 273.909 131.942 274.309 130.996C274.742 129.927 275.017 128.801 275.126 127.653C275.324 125.279 275.166 122.888 274.655 120.562C274.175 118.163 273.4 115.834 272.347 113.627C272.221 113.362 272.09 113.099 271.955 112.838C271.946 112.816 271.931 112.797 271.914 112.782C271.896 112.767 271.875 112.756 271.852 112.75C271.806 112.741 271.759 112.751 271.72 112.777C271.673 112.804 271.638 112.848 271.623 112.899C271.608 112.951 271.613 113.007 271.637 113.055C272.722 115.175 273.545 117.419 274.086 119.739C274.644 122.015 274.889 124.356 274.815 126.697C274.775 128.875 274.096 130.993 272.864 132.788C271.665 134.404 270.088 135.7 268.272 136.562C267.136 137.107 265.943 137.522 264.715 137.8Z" fill="white"/>
<path d="M260.872 138H261.388C261.446 137.934 261.502 137.867 261.557 137.8C262.733 136.369 263.529 134.664 263.873 132.843C264.29 130.57 263.965 128.223 262.947 126.149C262.663 125.568 262.328 125.013 261.947 124.49C261.811 124.519 261.677 124.552 261.546 124.592C262.55 125.924 263.225 127.475 263.516 129.118C263.776 130.658 263.689 132.236 263.263 133.738C262.836 135.24 262.081 136.628 261.051 137.8C260.993 137.867 260.933 137.934 260.872 138Z" fill="white"/>
<path d="M153.483 80.3833H117.244L116.86 69.2206C116.844 68.7367 116.932 68.2549 117.119 67.8085C117.306 67.362 117.587 66.9614 117.944 66.6344C118.3 66.3073 118.723 66.0614 119.183 65.9138C119.643 65.7661 120.13 65.7201 120.61 65.7789L141.698 68.366H141.701C144.827 68.3744 147.823 69.6241 150.031 71.8411C152.24 74.0582 153.481 77.0619 153.483 80.1941V80.3833Z" fill="#716DF2"/>
<path d="M137.331 40.7874H112.057C111.72 40.7873 111.388 40.8535 111.077 40.9824C110.766 41.1112 110.484 41.3001 110.247 41.5382C110.009 41.7763 109.82 42.059 109.692 42.3702C109.563 42.6813 109.497 43.0148 109.497 43.3516V68.673C109.497 69.0098 109.563 69.3433 109.692 69.6544C109.82 69.9656 110.009 70.2483 110.247 70.4864C110.484 70.7245 110.766 70.9134 111.077 71.0422C111.388 71.1711 111.72 71.2373 112.057 71.2372H137.331C137.668 71.2373 138 71.1711 138.311 71.0422C138.622 70.9134 138.904 70.7245 139.141 70.4864C139.379 70.2483 139.568 69.9656 139.696 69.6544C139.825 69.3433 139.891 69.0098 139.891 68.673V43.3516C139.891 43.0148 139.825 42.6813 139.696 42.3702C139.568 42.059 139.379 41.7763 139.141 41.5382C138.904 41.3001 138.622 41.1112 138.311 40.9824C138 40.8535 137.668 40.7873 137.331 40.7874V40.7874Z" fill="#CCCCCC"/>
<path d="M131.639 59.7218L119.706 62.0499C118.998 62.1872 118.265 62.0376 117.667 61.6339C117.069 61.2301 116.655 60.6053 116.517 59.8965L115.599 55.1772C115.462 54.4681 115.612 53.7334 116.015 53.1344C116.418 52.5355 117.041 52.1211 117.749 51.9822L129.682 49.6541C130.39 49.5168 131.123 49.6665 131.721 50.0702C132.319 50.4739 132.733 51.0987 132.871 51.8076L133.789 56.5268C133.926 57.2359 133.776 57.9706 133.373 58.5696C132.97 59.1685 132.347 59.5829 131.639 59.7218Z" fill="#3F3D56"/>
<path d="M129.252 54.1464L120.145 55.9232C119.978 55.9557 119.805 55.9206 119.665 55.8255C119.524 55.7305 119.427 55.5834 119.394 55.4165C119.362 55.2496 119.397 55.0766 119.492 54.9357C119.586 54.7947 119.733 54.6972 119.9 54.6647L129.007 52.888C129.174 52.8555 129.346 52.8906 129.487 52.9856C129.628 53.0807 129.725 53.2278 129.757 53.3947C129.79 53.5616 129.755 53.7345 129.66 53.8755C129.565 54.0165 129.418 54.1139 129.252 54.1464V54.1464Z" fill="white"/>
<path d="M127.482 56.7776L122.771 57.6966C122.604 57.7291 122.432 57.694 122.291 57.5989C122.15 57.5039 122.053 57.3568 122.021 57.1899C121.988 57.023 122.023 56.8501 122.118 56.7091C122.213 56.5681 122.36 56.4706 122.526 56.4381L127.237 55.5191C127.319 55.5031 127.404 55.5034 127.487 55.5201C127.569 55.5369 127.647 55.5697 127.717 55.6168C127.787 55.6638 127.846 55.7242 127.893 55.7944C127.939 55.8645 127.971 55.9432 127.987 56.0258C128.003 56.1085 128.003 56.1935 127.986 56.276C127.97 56.3585 127.937 56.4368 127.89 56.5067C127.843 56.5765 127.783 56.6363 127.713 56.6828C127.643 56.7293 127.564 56.7615 127.482 56.7776Z" fill="white"/>
<path d="M139.891 43.3516V46.7171H109.497V43.3516C109.497 43.0148 109.563 42.6813 109.692 42.3702C109.82 42.059 110.009 41.7763 110.247 41.5382C110.484 41.3001 110.766 41.1112 111.077 40.9824C111.388 40.8535 111.72 40.7873 112.057 40.7874H137.331C137.668 40.7873 138 40.8535 138.311 40.9824C138.622 41.1112 138.904 41.3001 139.141 41.5382C139.379 41.7763 139.568 42.059 139.696 42.3702C139.825 42.6813 139.891 43.0148 139.891 43.3516Z" fill="#B3B3B3"/>
<path d="M200.584 47.7709C200.409 47.2035 200.111 46.6815 199.713 46.2417C199.314 45.8019 198.824 45.455 198.277 45.2255C197.73 44.9959 197.14 44.8893 196.547 44.9132C195.955 44.937 195.375 45.0907 194.848 45.3634L160.076 32.8647L158.544 41.5674L193.206 51.1167C193.722 51.9729 194.533 52.6098 195.487 52.9066C196.44 53.2035 197.469 53.1396 198.378 52.7272C199.288 52.3148 200.015 51.5825 200.421 50.669C200.828 49.7555 200.886 48.7244 200.584 47.7709V47.7709Z" fill="#FFB8B8"/>
<path opacity="0.2" d="M200.584 47.7709C200.409 47.2035 200.111 46.6815 199.713 46.2417C199.314 45.8019 198.824 45.455 198.277 45.2255C197.73 44.9959 197.14 44.8893 196.547 44.9132C195.955 44.937 195.375 45.0907 194.848 45.3634L160.076 32.8647L158.544 41.5674L193.206 51.1167C193.722 51.9729 194.533 52.6098 195.487 52.9066C196.44 53.2035 197.469 53.1396 198.378 52.7272C199.288 52.3148 200.015 51.5825 200.421 50.669C200.828 49.7555 200.886 48.7244 200.584 47.7709V47.7709Z" fill="black"/>
<path d="M166.248 34.4505L162.964 43.0447C162.871 43.2892 162.726 43.5107 162.539 43.694C162.353 43.8774 162.129 44.0183 161.883 44.1071C161.637 44.196 161.375 44.2308 161.115 44.209C160.854 44.1873 160.601 44.1096 160.374 43.9811L152.393 39.4813C151.147 38.9952 150.145 38.034 149.605 36.8085C149.065 35.5829 149.033 34.1929 149.514 32.9433C149.996 31.6937 150.953 30.6864 152.174 30.1422C153.396 29.5981 154.783 29.5615 156.032 30.0405L164.943 32.0205C165.199 32.0773 165.438 32.1885 165.647 32.3465C165.855 32.5046 166.027 32.7057 166.151 32.9363C166.275 33.167 166.347 33.4216 166.364 33.6829C166.381 33.9442 166.341 34.206 166.248 34.4505V34.4505Z" fill="#716DF2"/>
<path d="M203.322 55.7286L190.862 61.4025L192.498 67.5723C195.657 79.4866 196.495 91.899 194.967 104.131V104.131L204.077 106.037L211.628 86.7459L208.985 64.8068L203.322 55.7286Z" fill="#716DF2"/>
<path d="M227.769 84.2872C219.582 84.2872 212.911 90.2493 212.587 97.7154H242.95C242.627 90.2493 235.955 84.2872 227.769 84.2872Z" fill="#151515"/>
<path d="M221.396 85.5738C220.97 51.8716 201.811 54.9721 201.811 54.9721C201.811 54.9721 202.17 65.4625 202.342 65.7887C214.551 88.9305 194.402 116.061 168.754 111.07C168.27 110.976 167.806 110.88 167.36 110.783C164.11 110.104 161.241 108.209 159.336 105.485C157.431 102.762 156.633 99.4131 157.104 96.1209C159.631 75.7949 147.065 76.1546 147.065 76.1546H128.69L119.148 67.5508C118.811 67.2471 118.405 67.0307 117.965 66.9205C117.526 66.8103 117.066 66.8097 116.626 66.9187C116.186 67.0277 115.779 67.243 115.442 67.5458C115.104 67.8486 114.846 68.2296 114.689 68.6556L113.461 71.9938C113.461 71.9938 95.3384 73.8851 96.8487 91.6633H102.452C102.438 92.1684 102.458 92.6739 102.512 93.1763L144.328 92.8357C146.779 92.8157 148.942 94.8055 148.952 97.2612C148.955 97.8591 148.837 98.4513 148.606 99.0024C148.375 99.5536 148.035 100.052 147.607 100.469C147.179 100.885 146.671 101.211 146.114 101.427C145.558 101.642 144.964 101.743 144.367 101.723L137.626 101.498C135.549 110.765 140.646 117.007 146.262 120.931C151.55 124.572 157.825 126.503 164.241 126.463H182.556C206.342 126.463 210.495 106.415 210.495 106.415C222.955 101.12 221.396 85.5738 221.396 85.5738Z" fill="black"/>
<path d="M226.636 137.433C238.366 137.433 247.874 127.907 247.874 116.155C247.874 104.404 238.366 94.8784 226.636 94.8784C214.907 94.8784 205.398 104.404 205.398 116.155C205.398 127.907 214.907 137.433 226.636 137.433Z" fill="black"/>
<path d="M226.636 121.37C229.511 121.37 231.841 119.036 231.841 116.156C231.841 113.275 229.511 110.941 226.636 110.941C223.761 110.941 221.431 113.275 221.431 116.156C221.431 119.036 223.761 121.37 226.636 121.37Z" fill="white"/>
<path d="M119.408 137.433C132.91 137.433 143.855 126.467 143.855 112.94C143.855 99.4136 132.91 88.448 119.408 88.448C105.906 88.448 94.9609 99.4136 94.9609 112.94C94.9609 126.467 105.906 137.433 119.408 137.433Z" fill="black"/>
<path d="M119.408 118.943C122.717 118.943 125.4 116.256 125.4 112.94C125.4 109.625 122.717 106.937 119.408 106.937C116.099 106.937 113.416 109.625 113.416 112.94C113.416 116.256 116.099 118.943 119.408 118.943Z" fill="white"/>
<path d="M190.897 63.0789L186.414 50.8803C186.181 50.2445 186.074 49.5688 186.101 48.8919C186.128 48.215 186.288 47.55 186.572 46.9349C186.855 46.3198 187.257 45.7668 187.754 45.3072C188.251 44.8477 188.833 44.4907 189.468 44.2567L202.32 39.5166C203.436 39.1047 204.623 38.9171 205.812 38.9646C207.001 39.0121 208.169 39.2938 209.249 39.7935C210.329 40.2932 211.301 41.0012 212.108 41.8771C212.915 42.7529 213.542 43.7795 213.953 44.8981C214.324 45.9021 214.513 46.9643 214.512 48.0348C214.508 49.3941 214.201 50.7353 213.614 51.9608C213.027 53.1863 212.174 54.2654 211.119 55.1196C210.357 55.7324 209.5 56.2165 208.582 56.5529L190.897 63.0789Z" fill="black"/>
<path d="M214.324 48.0348C214.323 49.3664 214.024 50.6809 213.449 51.8814C212.874 53.082 212.037 54.1381 211.001 54.9721C209.411 54.552 207.932 53.7901 206.666 52.7393C205.4 51.6885 204.377 50.3741 203.669 48.8874C202.962 47.4008 202.585 45.7775 202.567 44.1304C202.549 42.4834 202.889 40.8521 203.563 39.35C204.858 39.0678 206.2 39.0798 207.49 39.3851C208.779 39.6904 209.985 40.2813 211.017 41.1142C212.049 41.9472 212.882 43.0011 213.454 44.1987C214.026 45.3963 214.323 46.7071 214.324 48.0348V48.0348Z" fill="#716DF2"/>
<path d="M100.058 94.1219C102.977 94.1219 105.344 91.2429 105.344 87.6915C105.344 84.14 102.977 81.261 100.058 81.261C97.1385 81.261 94.772 84.14 94.772 87.6915C94.772 91.2429 97.1385 94.1219 100.058 94.1219Z" fill="#716DF2"/>
<path d="M169.93 110.454H174.559L176.761 98.4261L169.929 98.4265L169.93 110.454Z" fill="#FFB8B8"/>
<path d="M168.75 108.94L177.865 108.939H177.866C178.629 108.939 179.384 109.09 180.089 109.382C180.794 109.675 181.434 110.103 181.974 110.644C182.513 111.184 182.941 111.826 183.233 112.532C183.525 113.238 183.675 113.995 183.675 114.759V114.948L168.75 114.949L168.75 108.94Z" fill="black"/>
<path d="M175.303 105.517C175.249 105.517 175.195 105.515 175.141 105.509L168.735 105.042C168.476 105.018 168.226 104.935 168.004 104.798C167.782 104.662 167.595 104.477 167.456 104.256C167.317 104.036 167.23 103.787 167.202 103.527C167.175 103.268 167.207 103.006 167.297 102.761L175.87 83.4647C175.931 83.2926 175.956 83.1098 175.943 82.9276C175.931 82.7454 175.88 82.5678 175.796 82.406C175.711 82.2423 175.593 82.0983 175.449 81.9836C175.306 81.8689 175.139 81.786 174.961 81.7403C170.93 80.6846 160.586 77.8735 151.633 74.5844C147.797 73.1752 145.381 71.1387 144.452 68.5315C143.227 65.0943 145.039 61.9597 145.116 61.8282L145.177 61.7251L153.602 62.4923L162.736 63.2706L182.752 74.0237C184.429 74.9324 185.703 76.4406 186.32 78.248C186.937 80.0555 186.852 82.0295 186.082 83.7768L176.854 104.508C176.72 104.809 176.503 105.064 176.228 105.243C175.952 105.422 175.631 105.517 175.303 105.517Z" fill="black"/>
<path d="M155.067 24.315C160.189 24.315 164.341 20.1555 164.341 15.0246C164.341 9.8936 160.189 5.73413 155.067 5.73413C149.946 5.73413 145.794 9.8936 145.794 15.0246C145.794 20.1555 149.946 24.315 155.067 24.315Z" fill="#FFB8B8"/>
<path d="M167.287 111.588H171.916L174.119 99.5609L167.287 99.5612L167.287 111.588Z" fill="#FFB8B8"/>
<path d="M166.107 110.074L175.222 110.074H175.223C175.986 110.074 176.741 110.224 177.446 110.517C178.151 110.809 178.791 111.238 179.331 111.779C179.87 112.319 180.298 112.961 180.59 113.667C180.882 114.373 181.032 115.13 181.032 115.894V116.083L166.107 116.084L166.107 110.074Z" fill="black"/>
<path d="M172.66 106.652C172.606 106.652 172.552 106.649 172.498 106.644L166.092 106.177C165.833 106.153 165.583 106.069 165.361 105.933C165.139 105.797 164.951 105.612 164.812 105.391C164.673 105.171 164.587 104.921 164.559 104.662C164.532 104.403 164.564 104.141 164.654 103.896L173.227 84.5995C173.288 84.4275 173.313 84.2446 173.3 84.0624C173.287 83.8802 173.237 83.7026 173.153 83.5408C173.068 83.3771 172.95 83.2332 172.806 83.1185C172.662 83.0037 172.496 82.9208 172.318 82.8752C168.286 81.8195 157.943 79.0084 148.989 75.7193C145.153 74.31 142.737 72.2736 141.809 69.6664C140.584 66.2292 142.396 63.0945 142.473 62.963L142.534 62.8599L150.959 63.6272L160.093 64.4055L180.109 75.1585C181.786 76.0672 183.06 77.5754 183.677 79.3829C184.294 81.1903 184.209 83.1643 183.438 84.9116L174.211 105.643C174.077 105.943 173.86 106.198 173.584 106.377C173.309 106.556 172.988 106.652 172.66 106.652Z" fill="black"/>
<path d="M157.927 29.583L148.111 26.1787C148.111 26.1787 141.948 30.9221 144.909 42.6892C146.454 48.7615 146.004 55.1712 143.625 60.9668C143.338 61.6838 143.008 62.3826 142.636 63.059C142.636 63.059 153.585 76.2981 163.78 66.4633L159.815 47.3612C159.815 47.3612 166.045 34.6895 157.927 29.583Z" fill="#716DF2"/>
<path d="M156.219 24.6309C154.899 22.6518 153.857 19.9074 155.31 18.0243C156.745 16.1655 159.574 16.4393 161.771 15.6168C164.831 14.4712 166.605 10.8699 166.052 7.64475C165.498 4.41958 162.914 1.74601 159.835 0.652073C156.757 -0.441864 153.285 -0.0860904 150.271 1.17365C146.559 2.7244 143.376 5.72422 142.041 9.5242C140.706 13.3242 141.42 17.8868 144.189 20.8075C147.158 23.9389 151.818 24.7734 156.129 24.7228" fill="black"/>
<path d="M147.593 7.74825C145.929 9.10464 143.392 8.50219 141.607 7.31178C139.822 6.12138 138.373 4.42632 136.441 3.493C133.036 1.84759 128.919 2.94141 125.605 4.76399C122.29 6.58658 119.353 9.10452 115.852 10.5348C112.351 11.965 107.884 12.0357 105.233 9.33508C104.58 11.2286 104.527 13.2776 105.08 15.2026C105.633 17.1276 106.765 18.8348 108.323 20.0912C109.88 21.3477 111.786 22.0922 113.781 22.2233C115.776 22.3543 117.763 21.8654 119.471 20.8234C123.307 18.4826 125.425 13.5745 129.728 12.2825C132.108 11.5676 134.665 12.1434 137.071 12.7671C139.477 13.3908 141.986 14.0647 144.414 13.5337C146.842 13.0028 149.114 10.8167 148.805 8.34601L147.593 7.74825Z" fill="black"/>
<path d="M200.123 47.3926C199.879 46.8511 199.52 46.3699 199.07 45.9827C198.62 45.5956 198.091 45.3119 197.52 45.1517C196.949 44.9916 196.35 44.9588 195.765 45.0556C195.18 45.1525 194.623 45.3768 194.134 45.7125L158.088 37.6075L157.64 46.433L193.213 51.6248C193.83 52.4108 194.714 52.9424 195.697 53.1192C196.679 53.2959 197.693 53.1054 198.544 52.5837C199.396 52.062 200.027 51.2454 200.318 50.2887C200.609 49.3319 200.54 48.3015 200.123 47.3926V47.3926Z" fill="#FFB8B8"/>
<path d="M164.408 38.4182L162.208 47.3526C162.145 47.6068 162.029 47.8445 161.866 48.0495C161.704 48.2545 161.499 48.422 161.266 48.5406C161.033 48.6592 160.777 48.7261 160.516 48.7367C160.255 48.7473 159.994 48.7014 159.753 48.6021L151.279 45.1231C149.982 44.7955 148.868 43.9658 148.18 42.816C147.493 41.6662 147.289 40.2903 147.613 38.9901C147.938 37.6898 148.764 36.5716 149.91 35.8806C151.056 35.1897 152.429 34.9826 153.727 35.3046L162.815 36.168C163.075 36.1928 163.326 36.2735 163.553 36.4046C163.779 36.5356 163.974 36.714 164.126 36.9276C164.277 37.1411 164.38 37.3848 164.429 37.642C164.478 37.8993 164.471 38.164 164.408 38.4182V38.4182Z" fill="#716DF2"/>
<path d="M195.959 54.4046C197.419 54.4046 198.602 53.2192 198.602 51.7568C198.602 50.2945 197.419 49.109 195.959 49.109C194.499 49.109 193.316 50.2945 193.316 51.7568C193.316 53.2192 194.499 54.4046 195.959 54.4046Z" fill="#716DF2"/>
</g>
<defs>
<clipPath id="clip0_44_345">
<rect width="313" height="138" fill="white"/>
</clipPath>
</defs>
</svg>
