<svg width="25" height="24" viewBox="0 0 25 24" fill="none" xmlns="http://www.w3.org/2000/svg">
<path d="M12.5 16C12.2566 16.0005 12.0207 15.9191 11.8333 15.77L5.58334 10.77C5.37061 10.6003 5.23683 10.3564 5.21144 10.092C5.18604 9.82753 5.27111 9.56425 5.44792 9.36003C5.62473 9.15581 5.8788 9.02739 6.15425 9.00301C6.42969 8.97863 6.70394 9.06029 6.91667 9.23003L12.5 13.71L18.0833 9.39003C18.1899 9.30697 18.3125 9.24493 18.4441 9.2075C18.5757 9.17007 18.7137 9.15798 18.8502 9.17192C18.9867 9.18586 19.119 9.22555 19.2394 9.28873C19.3599 9.3519 19.4661 9.4373 19.5521 9.54003C19.6475 9.64285 19.7197 9.76348 19.7643 9.89435C19.8089 10.0252 19.8248 10.1635 19.8111 10.3006C19.7974 10.4377 19.7544 10.5705 19.6847 10.6909C19.6151 10.8112 19.5203 10.9165 19.4063 11L13.1563 15.83C12.9635 15.9555 12.7324 16.0154 12.5 16Z" fill="#FEB949" fill-opacity="0.5"/>
</svg>
