<svg width="314" height="277" viewBox="0 0 314 277" fill="none" xmlns="http://www.w3.org/2000/svg">
<path d="M214.763 79.6072C235.619 79.6072 252.526 62.682 252.526 41.8036C252.526 20.9253 235.619 4 214.763 4C193.907 4 177 20.9253 177 41.8036C177 62.682 193.907 79.6072 214.763 79.6072Z" fill="#6C63FF"/>
<path d="M211.021 56.2245C210.171 56.2259 209.344 55.9508 208.665 55.4406L208.623 55.4089L199.748 48.6127C199.337 48.2972 198.992 47.9038 198.733 47.4549C198.473 47.006 198.305 46.5104 198.237 45.9964C198.17 45.4824 198.203 44.96 198.337 44.4591C198.471 43.9583 198.702 43.4887 199.017 43.0772C199.332 42.6658 199.725 42.3205 200.174 42.061C200.622 41.8016 201.117 41.6331 201.631 41.5652C202.144 41.4973 202.666 41.5313 203.166 41.6653C203.667 41.7993 204.136 42.0306 204.547 42.3461L210.295 46.7589L223.879 29.0184C224.194 28.6071 224.587 28.2619 225.035 28.0026C225.483 27.7433 225.978 27.5749 226.491 27.507C227.005 27.4391 227.526 27.4731 228.026 27.6071C228.527 27.741 228.995 27.9722 229.406 28.2875L229.407 28.2884L229.323 28.4056L229.41 28.2884C230.239 28.9261 230.781 29.867 230.918 30.9045C231.054 31.9421 230.774 32.9916 230.139 33.8226L214.161 54.6801C213.792 55.1607 213.317 55.5496 212.772 55.8166C212.228 56.0836 211.63 56.2216 211.024 56.2198L211.021 56.2245Z" fill="white"/>
<path d="M265.648 243L229 217.25C241.36 205.289 252.602 188.257 263.352 169L300 194.75C285.356 211.272 272.951 227.486 265.648 243Z" fill="#6C63FF"/>
<path d="M265.5 215C271.299 215 276 210.299 276 204.5C276 198.701 271.299 194 265.5 194C259.701 194 255 198.701 255 204.5C255 210.299 259.701 215 265.5 215Z" fill="white"/>
<path d="M89.476 125H85.524C85.385 125 85.2517 125.062 85.1534 125.171C85.0552 125.281 85 125.429 85 125.584V127.518C85 127.595 85.0135 127.671 85.0399 127.742C85.0662 127.813 85.1048 127.877 85.1534 127.931C85.2021 127.985 85.2599 128.028 85.3235 128.058C85.387 128.087 85.4551 128.102 85.524 128.102H86.1789V131H88.8211V128.102H89.476C89.615 128.102 89.7483 128.041 89.8465 127.931C89.9448 127.822 90 127.673 90 127.518V125.584C90 125.429 89.9448 125.281 89.8465 125.171C89.7483 125.062 89.615 125 89.476 125Z" fill="#E6E6E6"/>
<path d="M93.5576 141.428C91.04 137.832 89.7529 133.55 89.8808 129.195C89.8831 129.095 89.8497 128.997 89.7863 128.918C89.7229 128.838 89.6333 128.783 89.5329 128.761V128H85.1913V128.751H85.1315C85.073 128.751 85.015 128.762 84.961 128.784C84.907 128.806 84.8579 128.838 84.8166 128.878C84.7753 128.919 84.7426 128.967 84.7202 129.02C84.6979 129.072 84.6865 129.129 84.6866 129.186C84.6866 129.197 84.6869 129.207 84.6878 129.218C85.0885 133.661 83.8606 138.098 81.2228 141.74C81.0702 141.952 80.9922 142.207 81.0006 142.466L81.4753 156.802C81.4867 157.122 81.6242 157.425 81.8591 157.648C82.0939 157.871 82.408 157.997 82.7357 158H92.5558C92.8873 157.997 93.2046 157.868 93.4402 157.641C93.6757 157.413 93.8109 157.105 93.8169 156.781L93.9999 142.862C94.0053 142.351 93.851 141.851 93.5576 141.428Z" fill="#6C63FF"/>
<path opacity="0.2" d="M89 126C89 126.265 88.8946 126.52 88.7071 126.707C88.5196 126.895 88.2652 127 88 127C87.7348 127 87.4804 126.895 87.2929 126.707C87.1054 126.52 87 126.265 87 126" fill="black"/>
<path d="M92 144H84V150H92V144Z" fill="white"/>
<path d="M216.057 181H208.943C208.693 181 208.453 181.103 208.276 181.285C208.099 181.468 208 181.715 208 181.974V185.197C208 185.455 208.099 185.703 208.276 185.885C208.453 186.068 208.693 186.17 208.943 186.17H210.122V191H214.878V186.17H216.057C216.307 186.17 216.547 186.068 216.724 185.885C216.901 185.703 217 185.455 217 185.197V181.974C217 181.715 216.901 181.468 216.724 181.285C216.547 181.103 216.307 181 216.057 181Z" fill="#E6E6E6"/>
<path d="M224.183 211.065C219.535 204.352 217.159 196.359 217.395 188.231C217.4 188.044 217.338 187.861 217.221 187.713C217.104 187.565 216.938 187.462 216.753 187.421V186H208.738V187.401H208.627C208.519 187.401 208.412 187.422 208.313 187.463C208.213 187.504 208.122 187.564 208.046 187.64C207.97 187.715 207.909 187.805 207.868 187.903C207.827 188.002 207.806 188.107 207.806 188.214C207.806 188.234 207.807 188.253 207.808 188.273C208.44 196.962 206.307 204.753 201.411 211.648C201.13 212.044 200.986 212.52 201.001 213.004L201.878 239.764C201.899 240.361 202.152 240.927 202.586 241.343C203.02 241.76 203.599 241.995 204.204 242H222.334C222.946 241.995 223.532 241.755 223.966 241.33C224.401 240.905 224.651 240.329 224.662 239.725L225 213.743C225.01 212.789 224.725 211.855 224.183 211.065Z" fill="#6C63FF"/>
<path opacity="0.2" d="M215 182C215 182.53 214.737 183.039 214.268 183.414C213.799 183.789 213.163 184 212.5 184C211.837 184 211.201 183.789 210.732 183.414C210.263 183.039 210 182.53 210 182" fill="black"/>
<path d="M220.467 220H205.533C205.312 220 205.094 220.049 204.893 220.145C204.692 220.24 204.514 220.38 204.37 220.553C204.226 220.727 204.12 220.931 204.059 221.15C203.998 221.37 203.984 221.601 204.018 221.827L206.275 237H219.233L221.974 221.878C222.015 221.649 222.007 221.413 221.951 221.188C221.894 220.962 221.79 220.752 221.647 220.573C221.503 220.394 221.322 220.249 221.119 220.15C220.915 220.051 220.692 220 220.467 220Z" fill="white"/>
<path d="M195 243H150C153.146 226.172 152.422 205.853 150 184H195C192.642 205.853 191.938 226.172 195 243Z" fill="#6C63FF"/>
<path d="M173 222C179.075 222 184 217.299 184 211.5C184 205.701 179.075 201 173 201C166.925 201 162 205.701 162 211.5C162 217.299 166.925 222 173 222Z" fill="white"/>
<path d="M12 57L22.3887 56.08L29 40.4403L17.1946 34L12 57Z" fill="#FFB8B8"/>
<path d="M104.597 99.5158C104.928 98.6996 105.058 97.8174 104.976 96.9418C104.895 96.0662 104.604 95.2223 104.128 94.4796C103.652 93.737 103.005 93.1168 102.239 92.6703C101.473 92.2237 100.611 91.9635 99.7236 91.9112L84.2747 91L82 98.4817L97.9038 102.802C99.2328 103.163 100.65 103.027 101.884 102.421C103.118 101.815 104.084 100.781 104.597 99.5158Z" fill="#FFB8B8"/>
<path d="M88 103L87.828 88.5263L53.1051 82.9427L26.3552 52.0249C24.9634 50.4163 23.0402 49.3705 20.942 49.0814C18.8437 48.7922 16.7126 49.2793 14.9434 50.4523C13.8722 51.1625 12.9689 52.1012 12.2972 53.2019C11.6256 54.3027 11.2021 55.5387 11.0566 56.8226C10.9111 58.1064 11.0471 59.4068 11.4552 60.6318C11.8632 61.8569 12.5333 62.9766 13.418 63.912L35.4865 91.2816L88 103Z" fill="#575A89"/>
<path d="M5 263H14.0588L36.5281 161.474L59.8059 192.837L73.3941 260.737H82L80.1883 187.858L49.8412 110H19.9471C11.7778 124.775 5.36929 140.006 12.7 155.719L5 263Z" fill="#2F2E41"/>
<path d="M68.106 269.772C68.0073 270.102 67.9771 270.449 68.0172 270.792C68.0573 271.135 68.1669 271.465 68.3387 271.76C68.5105 272.056 68.7406 272.309 69.0135 272.504C69.2865 272.699 69.5961 272.832 69.9218 272.892L91.7565 276.939C92.6193 277.104 93.5101 276.933 94.2608 276.459C95.0115 275.986 95.5704 275.241 95.832 274.367C96.0865 273.532 96.0509 272.629 95.7316 271.818C95.4123 271.008 94.8296 270.34 94.0859 269.933C89.2849 267.359 85.1531 263.607 82.0444 259C79.6446 261.334 76.9624 261.114 74.1142 259.394L71.0931 259.789L68.106 269.772Z" fill="#2F2E41"/>
<path d="M0.109795 269.772C0.00761154 270.102 -0.0237473 270.449 0.0178165 270.792C0.0593802 271.135 0.172906 271.465 0.350838 271.76C0.52877 272.056 0.767028 272.309 1.04974 272.504C1.33246 272.699 1.65314 272.832 1.99045 272.892L24.6049 276.939C25.4986 277.104 26.4211 276.933 27.1987 276.459C27.9762 275.986 28.555 275.241 28.826 274.367C29.0896 273.532 29.0528 272.629 28.722 271.818C28.3913 271.008 27.7878 270.34 27.0175 269.933C22.045 267.359 17.7656 263.607 14.546 259C12.0605 261.334 9.28248 261.114 6.33254 259.394L3.20362 259.789L0.109795 269.772Z" fill="#2F2E41"/>
<path d="M29 46C36.1797 46 42 40.4036 42 33.5C42 26.5964 36.1797 21 29 21C21.8203 21 16 26.5964 16 33.5C16 40.4036 21.8203 46 29 46Z" fill="#FFB8B8"/>
<path d="M17.3213 113L51 112.093L41.1093 81.4865C47.2559 71.7982 41.0699 62.1197 32.3152 52.4433L25.3949 47.9072L14.3225 47C9.52853 52.0436 6.90544 58.7154 7.00261 65.618C7.22184 80.3989 9.8837 96.4894 17.3213 113Z" fill="#575A89"/>
<path d="M94.2817 133.409C94.9388 132.801 95.4304 132.056 95.7161 131.237C96.0017 130.417 96.0731 129.547 95.9245 128.697C95.7759 127.847 95.4115 127.042 94.8613 126.348C94.3111 125.654 93.5909 125.092 92.76 124.706L78.2953 118L73 123.869L86.4849 133.817C87.6118 134.649 89.0293 135.067 90.4673 134.991C91.9053 134.916 93.2631 134.353 94.2817 133.409Z" fill="#FFB8B8"/>
<path d="M77.541 130L83 116.869L53.434 98.3149L40.9846 59.9973C40.3368 58.0036 38.9851 56.3112 37.1797 55.2336C35.3744 54.156 33.2378 53.7661 31.1658 54.1363C29.9113 54.3604 28.7215 54.856 27.6806 55.5882C26.6397 56.3203 25.7731 57.271 25.1419 58.3732C24.5108 59.4754 24.1306 60.7021 24.0282 61.9666C23.9257 63.2311 24.1036 64.5026 24.5492 65.6912L34.0971 98.9841L77.541 130Z" fill="#575A89"/>
<path d="M8 28.3491C8 33.3619 11.2106 41.1251 15.2603 44.4528C17.9851 46.6919 21.586 46.5976 22.9744 43.5326C24.3986 40.3885 29.308 32.9981 37.9488 28.3491C49.4676 22.1517 33.8639 11.5489 22.9744 13.1656C14.7915 14.3805 8 19.9635 8 28.3491Z" fill="#2F2E41"/>
<path d="M16 22C20.9706 22 25 17.7467 25 12.5C25 7.2533 20.9706 3 16 3C11.0294 3 7 7.2533 7 12.5C7 17.7467 11.0294 22 16 22Z" fill="#2F2E41"/>
<path d="M26.6047 9C26.6037 6.73102 25.7165 4.54622 24.1208 2.88348C22.525 1.22074 20.3387 0.202939 18 0.0340764C18.2311 0.0174352 18.4622 0 18.6977 0C21.1648 0 23.5309 0.94821 25.2754 2.63604C27.0199 4.32386 28 6.61305 28 9C28 11.3869 27.0199 13.6761 25.2754 15.3639C23.5309 17.0518 21.1648 18 18.6977 18C18.4622 18 18.2311 17.9825 18 17.9659C20.3387 17.797 22.525 16.7792 24.1207 15.1165C25.7165 13.4538 26.6037 11.269 26.6047 9Z" fill="#2F2E41"/>
<path d="M29 38C30.1046 38 31 36.6568 31 35C31 33.3431 30.1046 32 29 32C27.8954 32 27 33.3431 27 35C27 36.6568 27.8954 38 29 38Z" fill="#FFB8B8"/>
<path d="M287 247H145.526L115.568 105.355H90V99H120.718L150.677 240.644H287V247Z" fill="#3F3D56"/>
<path d="M166.5 273C173.956 273 180 266.732 180 259C180 251.268 173.956 245 166.5 245C159.044 245 153 251.268 153 259C153 266.732 159.044 273 166.5 273Z" fill="#3F3D56"/>
<path d="M268 273C275.732 273 282 266.732 282 259C282 251.268 275.732 245 268 245C260.268 245 254 251.268 254 259C254 266.732 260.268 273 268 273Z" fill="#3F3D56"/>
<path d="M284.568 244H146.382L122 124H307.448C308.395 124 309.33 124.204 310.189 124.599C311.049 124.993 311.812 125.568 312.427 126.284C313.042 127.001 313.494 127.841 313.752 128.748C314.01 129.654 314.068 130.606 313.921 131.537L291.039 238.488C290.803 240.027 290.02 241.43 288.832 242.442C287.644 243.453 286.131 244.006 284.568 244ZM147.882 242.185H284.568C285.696 242.189 286.788 241.79 287.645 241.06C288.502 240.33 289.068 239.317 289.238 238.206L312.119 131.255C312.225 130.583 312.184 129.896 311.998 129.242C311.812 128.587 311.486 127.981 311.042 127.464C310.598 126.947 310.047 126.532 309.427 126.247C308.806 125.963 308.131 125.815 307.448 125.815H124.213L147.882 242.185Z" fill="#3F3D56"/>
<path d="M173.279 243L158 124.296L159.721 124L175 242.704L173.279 243Z" fill="#3F3D56"/>
<path d="M261.872 242L260 241.709L276.128 124L278 124.291L261.872 242Z" fill="#3F3D56"/>
<path d="M220 124H218V243H220V124Z" fill="#3F3D56"/>
<path d="M131.663 156.282L131.659 158.1L307.762 158.527L307.767 156.708L131.663 156.282Z" fill="#3F3D56"/>
<path d="M295.34 212.459L140.629 213.516L140.641 215.335L295.352 214.278L295.34 212.459Z" fill="#3F3D56"/>
<path d="M93 106C98.5229 106 103 103.538 103 100.5C103 97.4624 98.5229 95 93 95C87.4772 95 83 97.4624 83 100.5C83 103.538 87.4772 106 93 106Z" fill="#3F3D56"/>
</svg>
