<svg width="256" height="253" viewBox="0 0 256 253" fill="none" xmlns="http://www.w3.org/2000/svg">
<path d="M182.372 184.66C182.589 184.66 182.811 184.655 183.028 184.649L170.382 205.836H85.654L72.939 184.65C77.959 184.788 83.016 183.247 87.152 180.018C95.079 186.202 106.412 186.207 114.355 180.018C122.282 186.207 133.615 186.212 141.564 180.018C149.486 186.207 160.819 186.212 168.773 180.018C172.734 183.109 177.553 184.66 182.372 184.66ZM195.765 170.281C195.765 171.689 195.019 173.632 193.943 174.807C188.229 181.059 177.114 180.964 170.648 174.632L168.789 172.784L166.914 174.616C160.438 180.964 149.899 180.964 143.439 174.632L141.58 172.779L139.711 174.616C133.229 180.964 122.691 180.964 116.231 174.632L114.378 172.779L112.503 174.611C106.027 180.964 95.488 180.964 89.028 174.632L87.175 172.779L85.3 174.611C82.059 177.793 77.801 179.381 73.544 179.381C69.297 179.381 60.236 177.157 60.236 170.28C60.236 166.601 63.222 163.615 66.903 163.615C68.169 163.615 69.349 163.975 70.356 164.584C82.806 146.044 103.957 133.836 127.972 133.836C151.998 133.836 173.154 146.055 185.604 164.611C186.621 163.981 187.812 163.616 189.099 163.616C192.778 163.616 195.765 166.602 195.765 170.281ZM115.14 142.307C115.14 142.307 107.747 143.922 106.153 145.515C104.559 147.109 104.559 149.697 106.153 151.291C107.752 152.885 110.336 152.885 111.93 151.291C113.525 149.698 115.14 142.307 115.14 142.307ZM131.927 150.931C131.927 148.67 127.844 142.307 127.844 142.307C127.844 142.307 123.761 148.676 123.761 150.931C123.761 153.186 125.588 155.013 127.844 155.013C130.1 155.013 131.927 153.187 131.927 150.931ZM149.556 145.515C147.962 143.921 140.57 142.307 140.57 142.307C140.57 142.307 142.185 149.698 143.779 151.291C145.378 152.885 147.962 152.885 149.556 151.291C151.155 149.698 151.155 147.109 149.556 145.515ZM2 69C2 82.678 11.625 94.302 24 98.576V233H2V251H254V233H232V98.554C244.89 94.609 253.699 83.158 254 69V61H2V69ZM65.29 68.346C65.29 74.823 72.045 99.816 97.017 99.816C118.706 99.816 128.219 80.201 128.219 68.346C128.219 79.398 135.629 99.793 159.683 99.793C181.416 99.793 191.046 78.794 191.046 68.346C191.046 82.771 200.772 94.762 214 98.5V233H42V98.594C55.402 94.966 65.29 82.895 65.29 68.346ZM222.832 22H223V2H34V22L2 54H254L222.832 22Z" fill="white"/>
</svg>
